<svg width="609" height="609" viewBox="0 0 609 609" fill="none" xmlns="http://www.w3.org/2000/svg">
<path d="M609 465.763H0V466.068H609V465.763Z" fill="#AF93D3"/>
<path d="M547.978 485.361H507.638V485.665H547.978V485.361Z" fill="#AF93D3"/>
<path d="M403.426 488.674H392.842V488.978H403.426V488.674Z" fill="#AF93D3"/>
<path d="M506.42 474.058H483.047V474.362H506.42V474.058Z" fill="#AF93D3"/>
<path d="M116.502 476.104H63.8962V476.409H116.502V476.104Z" fill="#AF93D3"/>
<path d="M135.064 476.104H127.354V476.409H135.064V476.104Z" fill="#AF93D3"/>
<path d="M274.233 481.244H160.13V481.548H274.233V481.244Z" fill="#AF93D3"/>
<path d="M288.666 411.44H53.4824C51.64 411.437 49.8741 410.703 48.5725 409.399C47.2709 408.095 46.5398 406.328 46.5398 404.486V73.8839C46.5558 72.052 47.294 70.3005 48.5939 69.0097C49.8938 67.7189 51.6505 66.9931 53.4824 66.99H288.666C290.511 66.99 292.28 67.7227 293.584 69.027C294.888 70.3313 295.621 72.1003 295.621 73.9448V404.486C295.621 406.33 294.888 408.099 293.584 409.403C292.28 410.708 290.511 411.44 288.666 411.44ZM53.4824 67.2336C51.7207 67.2368 50.0323 67.9389 48.7878 69.1857C47.5433 70.4325 46.8443 72.1222 46.8443 73.8839V404.486C46.8443 406.247 47.5433 407.937 48.7878 409.184C50.0323 410.431 51.7207 411.133 53.4824 411.136H288.666C290.429 411.133 292.118 410.431 293.365 409.184C294.611 407.938 295.313 406.248 295.316 404.486V73.8839C295.313 72.1211 294.611 70.4315 293.365 69.185C292.118 67.9385 290.429 67.2368 288.666 67.2336H53.4824Z" fill="#AF93D3"/>
<path d="M552.132 411.44H316.936C315.092 411.437 313.325 410.703 312.022 409.4C310.718 408.096 309.984 406.329 309.981 404.486V73.8839C310 72.0509 310.741 70.2994 312.043 69.0089C313.345 67.7185 315.103 66.9931 316.936 66.99H552.132C553.961 66.9963 555.715 67.7235 557.012 69.014C558.309 70.3044 559.046 72.0541 559.062 73.8839V404.486C559.062 406.326 558.333 408.091 557.034 409.395C555.735 410.698 553.972 411.434 552.132 411.44ZM316.936 67.2336C315.173 67.2368 313.483 67.9385 312.237 69.185C310.99 70.4315 310.289 72.1211 310.285 73.8839V404.486C310.289 406.248 310.99 407.938 312.237 409.184C313.483 410.431 315.173 411.133 316.936 411.136H552.132C553.894 411.133 555.584 410.431 556.83 409.184C558.077 407.938 558.779 406.248 558.782 404.486V73.8839C558.779 72.1211 558.077 70.4315 556.83 69.185C555.584 67.9385 553.894 67.2368 552.132 67.2336H316.936Z" fill="#AF93D3"/>
<path d="M304.135 192.749H270.372V226.511H304.135V192.749Z" fill="#696DC6"/>
<path d="M307.752 197.62H266.779V221.274H307.752V197.62Z" fill="#696DC6"/>
<path d="M296.108 177.938H278.398V188.827H296.108V177.938Z" fill="#696DC6"/>
<path d="M298.629 180.24H275.877V186.074H298.629V180.24Z" fill="#696DC6"/>
<path d="M312.222 192.749H307.655V197.316H312.222V192.749Z" fill="#696DC6"/>
<path d="M316.047 180.24H312.368V192.748H316.047V180.24Z" fill="#696DC6"/>
<path d="M312.234 206.67H307.569V211.335H312.234V206.67Z" fill="#696DC6"/>
<path d="M317.045 201.847H312.222V206.67H317.045V201.847Z" fill="#696DC6"/>
<path d="M321.759 195.038H317.045V201.847H321.759V195.038Z" fill="#696DC6"/>
<path d="M262.296 197.316H266.864V192.748H262.296V197.316Z" fill="#696DC6"/>
<path d="M258.472 192.749H262.15V180.24H258.472V192.749Z" fill="#696DC6"/>
<path d="M262.284 211.323H266.949V206.658H262.284V211.323Z" fill="#696DC6"/>
<path d="M257.461 206.67H262.284V201.847H257.461V206.67Z" fill="#696DC6"/>
<path d="M252.759 201.847H257.473V195.038H252.759V201.847Z" fill="#696DC6"/>
<path d="M265.938 230.884H270.506V226.317H265.938V230.884Z" fill="#696DC6"/>
<path d="M262.114 243.405H265.792V230.896H262.114V243.405Z" fill="#696DC6"/>
<path d="M262.235 218.68H266.9V214.015H262.235V218.68Z" fill="#696DC6"/>
<path d="M257.424 223.503H262.248V218.68H257.424V223.503Z" fill="#696DC6"/>
<path d="M252.711 230.312H257.424V223.503H252.711V230.312Z" fill="#696DC6"/>
<path d="M308.666 226.329H304.098V230.896H308.666V226.329Z" fill="#696DC6"/>
<path d="M312.49 230.896H308.812V243.405H312.49V230.896Z" fill="#696DC6"/>
<path d="M312.186 214.027H307.521V218.692H312.186V214.027Z" fill="#696DC6"/>
<path d="M317.009 218.68H312.186V223.503H317.009V218.68Z" fill="#696DC6"/>
<path d="M321.808 223.503H317.094V230.312H321.808V223.503Z" fill="#696DC6"/>
<path d="M425.606 133.688H380.247V165.94H425.606V133.688Z" fill="#696DC6"/>
<path d="M421.538 131.191H384.316V168.413H421.538V131.191Z" fill="#696DC6"/>
<path d="M389.857 120.411H384.9V129.266H389.857V120.411Z" fill="#696DC6"/>
<path d="M420.965 120.411H416.008V129.266H420.965V120.411Z" fill="#696DC6"/>
<path d="M416.008 115.515H389.857V120.631H416.008V115.515Z" fill="#696DC6"/>
<path d="M408.383 142.421H397.47V149.814H408.383V142.421Z" fill="white"/>
<path d="M404.875 147.134H400.966V158.486H404.875V147.134Z" fill="white"/>
<path d="M304.5 520.768C434.926 520.768 540.658 514.595 540.658 506.98C540.658 499.366 434.926 493.193 304.5 493.193C174.073 493.193 68.3419 499.366 68.3419 506.98C68.3419 514.595 174.073 520.768 304.5 520.768Z" fill="#AF9DB8"/>
<path d="M481.329 424.266C481.329 424.266 489.064 417.823 495.689 424.266C502.315 430.709 503.606 470.647 503.606 470.647" stroke="#5228AB" stroke-miterlimit="10"/>
<path d="M504.155 478.357C504.155 478.357 499.599 431.489 516.749 411.794" stroke="#5228AB" stroke-miterlimit="10"/>
<path d="M502.522 473.412C502.522 473.412 506.03 420.064 493.156 408.237" stroke="#5228AB" stroke-miterlimit="10"/>
<path d="M504.155 473.412C504.155 473.412 504.447 438.163 514.008 432.682C523.569 427.201 528.454 445.082 528.454 445.082" stroke="#5228AB" stroke-miterlimit="10"/>
<path d="M500.379 473.412C500.379 473.412 501.938 446.348 494.52 436.677C487.102 427.006 479.319 440.819 479.319 440.819" stroke="#5228AB" stroke-miterlimit="10"/>
<path d="M502.961 477.042C502.961 477.042 498.162 413.706 506.091 403.024" stroke="#5228AB" stroke-miterlimit="10"/>
<path d="M522.205 437.822C522.205 437.822 517.431 439.576 518.856 443.73C520.281 447.883 535.348 454.692 535.348 454.692C535.348 454.692 541.657 448.906 535.859 439.491C530.061 430.076 522.327 434.826 522.205 437.822Z" fill="#5228AB"/>
<path opacity="0.5" d="M522.205 437.822C522.205 437.822 517.431 439.576 518.856 443.73C520.281 447.883 535.348 454.692 535.348 454.692C535.348 454.692 541.657 448.906 535.859 439.491C530.061 430.076 522.327 434.826 522.205 437.822Z" fill="white"/>
<path d="M501.475 429.954C501.475 429.954 506.554 429.747 506.834 434.12C507.114 438.492 495.872 450.599 495.872 450.599C495.872 450.599 487.821 447.688 489.551 436.763C491.28 425.837 500.208 427.226 501.475 429.954Z" fill="#5228AB"/>
<path opacity="0.5" d="M501.475 429.954C501.475 429.954 506.554 429.747 506.834 434.12C507.114 438.492 495.872 450.599 495.872 450.599C495.872 450.599 487.821 447.688 489.551 436.763C491.28 425.837 500.208 427.226 501.475 429.954Z" fill="white"/>
<path d="M497.175 408.968C497.175 408.968 500.561 408.602 500.281 406.532C500.001 404.461 487.127 399.224 479.575 407.75C479.575 407.75 484.447 416.105 491.475 416.276C498.503 416.446 497.175 408.968 497.175 408.968Z" fill="#5228AB"/>
<path opacity="0.5" d="M497.175 408.968C497.175 408.968 500.561 408.602 500.281 406.532C500.001 404.461 487.127 399.224 479.575 407.75C479.575 407.75 484.447 416.105 491.475 416.276C498.503 416.446 497.175 408.968 497.175 408.968Z" fill="white"/>
<path d="M503.485 403.962C503.485 403.962 500.415 405.448 499.563 403.548C498.71 401.648 506.871 390.332 517.833 393.597C517.833 393.597 518.125 403.268 512.205 407.08C506.286 410.892 503.485 403.962 503.485 403.962Z" fill="#5228AB"/>
<path opacity="0.5" d="M503.485 403.962C503.485 403.962 500.415 405.448 499.563 403.548C498.71 401.648 506.871 390.332 517.833 393.597C517.833 393.597 518.125 403.268 512.205 407.08C506.286 410.892 503.485 403.962 503.485 403.962Z" fill="white"/>
<path d="M487.456 436.154C487.456 436.154 489.794 434.266 487.273 433.34C484.752 432.414 472.377 432.682 472.243 444.935C472.243 444.935 486.652 447.371 488.442 442.67C490.233 437.968 487.456 436.154 487.456 436.154Z" fill="#5228AB"/>
<path opacity="0.5" d="M487.456 436.154C487.456 436.154 489.794 434.266 487.273 433.34C484.752 432.414 472.377 432.682 472.243 444.935C472.243 444.935 486.652 447.371 488.442 442.67C490.233 437.968 487.456 436.154 487.456 436.154Z" fill="white"/>
<path d="M516.834 408.663C516.834 408.663 514.495 406.775 517.029 405.85C519.562 404.924 531.913 405.192 532.047 417.457C532.047 417.457 517.638 419.893 515.847 415.18C514.057 410.466 516.834 408.663 516.834 408.663Z" fill="#5228AB"/>
<path opacity="0.5" d="M516.834 408.663C516.834 408.663 514.495 406.775 517.029 405.85C519.562 404.924 531.913 405.192 532.047 417.457C532.047 417.457 517.638 419.893 515.847 415.18C514.057 410.466 516.834 408.663 516.834 408.663Z" fill="white"/>
<path d="M509.221 418.529C509.221 418.529 509.014 416.239 510.866 417.141C512.717 418.042 519.173 424.997 512.486 431.598C512.486 431.598 503.485 424.936 505.105 421.465C506.725 417.993 509.221 418.529 509.221 418.529Z" fill="#5228AB"/>
<path opacity="0.5" d="M509.221 418.529C509.221 418.529 509.014 416.239 510.866 417.141C512.717 418.042 519.173 424.997 512.486 431.598C512.486 431.598 503.485 424.936 505.105 421.465C506.725 417.993 509.221 418.529 509.221 418.529Z" fill="white"/>
<path d="M485.361 421.806C485.361 421.806 486.761 419.979 484.715 419.747C482.669 419.516 473.51 421.964 475.641 431.111C475.641 431.111 486.81 430.283 487.285 426.471C487.76 422.658 485.361 421.806 485.361 421.806Z" fill="#5228AB"/>
<path opacity="0.5" d="M485.361 421.806C485.361 421.806 486.761 419.979 484.715 419.747C482.669 419.516 473.51 421.964 475.641 431.111C475.641 431.111 486.81 430.283 487.285 426.471C487.76 422.658 485.361 421.806 485.361 421.806Z" fill="white"/>
<path d="M523.094 507.382H484.776L480.647 465.434H527.223L523.094 507.382Z" fill="#263238"/>
<path opacity="0.2" d="M523.094 507.382H484.776L480.647 465.434H527.223L523.094 507.382Z" fill="white"/>
<path d="M529.282 460.806H478.601V470.063H529.282V460.806Z" fill="#263238"/>
<path opacity="0.4" d="M529.282 460.806H478.601V470.063H529.282V460.806Z" fill="white"/>
<path d="M542.607 171.312H412.342C410.801 171.312 409.552 172.56 409.552 174.101V280.262C409.552 281.802 410.801 283.051 412.342 283.051H542.607C544.147 283.051 545.396 281.802 545.396 280.262V174.101C545.396 172.56 544.147 171.312 542.607 171.312Z" fill="#5228AB"/>
<path opacity="0.6" d="M545.396 174.101V280.262C545.396 281.002 545.102 281.711 544.579 282.234C544.056 282.757 543.347 283.051 542.607 283.051H412.342C411.602 283.051 410.893 282.757 410.369 282.234C409.846 281.711 409.552 281.002 409.552 280.262V174.101C409.556 173.362 409.851 172.655 410.373 172.132C410.895 171.61 411.603 171.315 412.342 171.312H542.668C543.396 171.331 544.088 171.633 544.597 172.153C545.107 172.674 545.393 173.373 545.396 174.101Z" fill="white"/>
<path d="M542.497 182.676H412.439V279.921H542.497V182.676Z" fill="#263238"/>
<path opacity="0.5" d="M423.024 194.795C423.183 194.909 423.375 194.969 423.572 194.965C423.714 194.967 423.854 194.935 423.982 194.871C424.109 194.808 424.219 194.715 424.303 194.6C424.375 194.504 424.428 194.394 424.458 194.277C424.488 194.16 424.494 194.038 424.476 193.919C424.457 193.8 424.415 193.686 424.352 193.583C424.289 193.48 424.206 193.391 424.108 193.321L421.428 191.336L424.12 189.35C424.217 189.279 424.298 189.19 424.361 189.087C424.423 188.984 424.464 188.87 424.482 188.751C424.5 188.632 424.495 188.511 424.466 188.395C424.437 188.278 424.386 188.168 424.315 188.071C424.244 187.975 424.154 187.893 424.051 187.831C423.948 187.768 423.834 187.727 423.716 187.709C423.597 187.691 423.476 187.696 423.359 187.725C423.242 187.754 423.133 187.805 423.036 187.877L419.382 190.605C419.268 190.691 419.176 190.803 419.113 190.93C419.049 191.058 419.016 191.199 419.016 191.342C419.016 191.484 419.049 191.625 419.113 191.753C419.176 191.881 419.268 191.992 419.382 192.079L423.024 194.795Z" fill="white"/>
<path opacity="0.5" d="M435.398 191.323L432.707 193.321C432.523 193.459 432.4 193.664 432.364 193.891C432.327 194.118 432.38 194.35 432.512 194.539C432.596 194.655 432.705 194.749 432.832 194.815C432.959 194.88 433.1 194.915 433.243 194.917C433.44 194.916 433.632 194.852 433.791 194.734L437.445 192.006C437.56 191.922 437.655 191.812 437.72 191.685C437.785 191.558 437.819 191.417 437.819 191.275C437.819 191.132 437.785 190.991 437.72 190.864C437.655 190.737 437.56 190.627 437.445 190.544L433.791 187.828C433.696 187.743 433.585 187.68 433.464 187.641C433.343 187.602 433.216 187.588 433.09 187.601C432.964 187.614 432.841 187.653 432.731 187.716C432.621 187.779 432.525 187.864 432.45 187.966C432.374 188.068 432.32 188.184 432.292 188.308C432.264 188.432 432.262 188.56 432.287 188.684C432.311 188.809 432.361 188.927 432.433 189.031C432.505 189.135 432.599 189.223 432.707 189.289L435.398 191.323Z" fill="white"/>
<path opacity="0.5" d="M427.14 194.88C427.241 194.899 427.344 194.899 427.445 194.88C427.633 194.882 427.817 194.824 427.97 194.714C428.124 194.605 428.238 194.45 428.297 194.271L430.234 188.827C430.315 188.597 430.301 188.345 430.196 188.126C430.091 187.907 429.903 187.738 429.674 187.657C429.444 187.577 429.192 187.59 428.973 187.695C428.754 187.8 428.585 187.988 428.504 188.218L426.58 193.662C426.532 193.778 426.508 193.903 426.511 194.029C426.513 194.155 426.541 194.279 426.594 194.393C426.647 194.508 426.722 194.61 426.816 194.694C426.91 194.778 427.021 194.841 427.14 194.88Z" fill="white"/>
<path opacity="0.5" d="M442.378 195.27H447.189C447.512 195.27 447.822 195.141 448.05 194.913C448.278 194.685 448.407 194.375 448.407 194.052C448.407 193.729 448.278 193.419 448.05 193.191C447.822 192.962 447.512 192.834 447.189 192.834H442.378C442.055 192.834 441.745 192.962 441.516 193.191C441.288 193.419 441.16 193.729 441.16 194.052C441.16 194.375 441.288 194.685 441.516 194.913C441.745 195.141 442.055 195.27 442.378 195.27Z" fill="white"/>
<path opacity="0.5" d="M520.39 264.172H445.033C444.71 264.172 444.4 264.3 444.172 264.529C443.943 264.757 443.815 265.067 443.815 265.39C443.815 265.713 443.943 266.023 444.172 266.251C444.4 266.48 444.71 266.608 445.033 266.608H520.39C520.714 266.608 521.023 266.48 521.252 266.251C521.48 266.023 521.608 265.713 521.608 265.39C521.608 265.067 521.48 264.757 521.252 264.529C521.023 264.3 520.714 264.172 520.39 264.172Z" fill="white"/>
<path d="M536.943 264.172H527.625C527.302 264.172 526.993 264.3 526.764 264.529C526.536 264.757 526.407 265.067 526.407 265.39C526.407 265.713 526.536 266.023 526.764 266.251C526.993 266.48 527.302 266.608 527.625 266.608H536.943C537.266 266.608 537.576 266.48 537.804 266.251C538.033 266.023 538.161 265.713 538.161 265.39C538.161 265.067 538.033 264.757 537.804 264.529C537.576 264.3 537.266 264.172 536.943 264.172Z" fill="white"/>
<path d="M467.712 258.898H498.052C498.375 258.898 498.685 258.77 498.914 258.541C499.142 258.313 499.27 258.003 499.27 257.68C499.27 257.357 499.142 257.047 498.914 256.819C498.685 256.59 498.375 256.462 498.052 256.462H467.712C467.389 256.462 467.079 256.59 466.851 256.819C466.622 257.047 466.494 257.357 466.494 257.68C466.494 258.003 466.622 258.313 466.851 258.541C467.079 258.77 467.389 258.898 467.712 258.898Z" fill="white"/>
<path opacity="0.5" d="M520.391 258.898C520.714 258.898 521.023 258.77 521.252 258.541C521.48 258.313 521.609 258.003 521.609 257.68C521.609 257.357 521.48 257.047 521.252 256.819C521.023 256.59 520.714 256.462 520.391 256.462H503.18C502.857 256.462 502.547 256.59 502.319 256.819C502.091 257.047 501.962 257.357 501.962 257.68C501.962 258.003 502.091 258.313 502.319 258.541C502.547 258.77 502.857 258.898 503.18 258.898H520.391Z" fill="white"/>
<path opacity="0.5" d="M536.943 256.462H527.796C527.473 256.462 527.163 256.59 526.935 256.819C526.706 257.047 526.578 257.357 526.578 257.68C526.578 258.003 526.706 258.313 526.935 258.541C527.163 258.77 527.473 258.898 527.796 258.898H536.943C537.266 258.898 537.576 258.77 537.804 258.541C538.033 258.313 538.161 258.003 538.161 257.68C538.161 257.357 538.033 257.047 537.804 256.819C537.576 256.59 537.266 256.462 536.943 256.462Z" fill="white"/>
<path d="M520.512 248.752H479.892C479.569 248.752 479.259 248.88 479.031 249.109C478.802 249.337 478.674 249.647 478.674 249.97C478.674 250.293 478.802 250.603 479.031 250.831C479.259 251.06 479.569 251.188 479.892 251.188H520.476C520.799 251.188 521.109 251.06 521.337 250.831C521.565 250.603 521.694 250.293 521.694 249.97C521.694 249.647 521.565 249.337 521.337 249.109C521.109 248.88 520.799 248.752 520.476 248.752H520.512Z" fill="white"/>
<path d="M536.943 248.752H527.686C527.363 248.752 527.053 248.88 526.825 249.109C526.597 249.337 526.468 249.647 526.468 249.97C526.468 250.293 526.597 250.603 526.825 250.831C527.053 251.06 527.363 251.188 527.686 251.188H536.943C537.266 251.188 537.576 251.06 537.804 250.831C538.033 250.603 538.161 250.293 538.161 249.97C538.161 249.647 538.033 249.337 537.804 249.109C537.576 248.88 537.266 248.752 536.943 248.752Z" fill="white"/>
<path opacity="0.5" d="M498.162 242.26C498.162 241.937 498.034 241.627 497.805 241.399C497.577 241.171 497.267 241.042 496.944 241.042H455.532C455.209 241.042 454.899 241.171 454.671 241.399C454.442 241.627 454.314 241.937 454.314 242.26C454.314 242.583 454.442 242.893 454.671 243.121C454.899 243.35 455.209 243.478 455.532 243.478H496.944C497.267 243.478 497.577 243.35 497.805 243.121C498.034 242.893 498.162 242.583 498.162 242.26Z" fill="white"/>
<path opacity="0.5" d="M504.447 241.042C504.124 241.042 503.814 241.171 503.586 241.399C503.357 241.627 503.229 241.937 503.229 242.26C503.229 242.583 503.357 242.893 503.586 243.121C503.814 243.35 504.124 243.478 504.447 243.478H520.5C520.823 243.478 521.133 243.35 521.361 243.121C521.59 242.893 521.718 242.583 521.718 242.26C521.718 241.937 521.59 241.627 521.361 241.399C521.133 241.171 520.823 241.042 520.5 241.042H504.447Z" fill="white"/>
<path d="M536.943 241.042H527.796C527.473 241.042 527.163 241.171 526.935 241.399C526.706 241.627 526.578 241.937 526.578 242.26C526.578 242.583 526.706 242.893 526.935 243.121C527.163 243.35 527.473 243.478 527.796 243.478H536.943C537.266 243.478 537.576 243.35 537.804 243.121C538.033 242.893 538.161 242.583 538.161 242.26C538.161 241.937 538.033 241.627 537.804 241.399C537.576 241.171 537.266 241.042 536.943 241.042Z" fill="white"/>
<path d="M506.688 235.768H514.654C514.977 235.768 515.287 235.64 515.515 235.412C515.743 235.183 515.872 234.873 515.872 234.55C515.872 234.227 515.743 233.917 515.515 233.689C515.287 233.461 514.977 233.332 514.654 233.332H506.688C506.365 233.332 506.055 233.461 505.827 233.689C505.598 233.917 505.47 234.227 505.47 234.55C505.47 234.873 505.598 235.183 505.827 235.412C506.055 235.64 506.365 235.768 506.688 235.768Z" fill="white"/>
<path opacity="0.5" d="M520.354 235.768H536.943C537.266 235.768 537.576 235.64 537.804 235.412C538.033 235.183 538.161 234.873 538.161 234.55C538.161 234.227 538.033 233.917 537.804 233.689C537.576 233.461 537.266 233.332 536.943 233.332H520.354C520.031 233.332 519.721 233.461 519.493 233.689C519.264 233.917 519.136 234.227 519.136 234.55C519.136 234.873 519.264 235.183 519.493 235.412C519.721 235.64 520.031 235.768 520.354 235.768Z" fill="white"/>
<path d="M462.048 226.84C462.048 226.517 461.92 226.207 461.691 225.979C461.463 225.751 461.153 225.622 460.83 225.622H418.992C418.669 225.622 418.359 225.751 418.131 225.979C417.902 226.207 417.774 226.517 417.774 226.84C417.774 227.163 417.902 227.473 418.131 227.702C418.359 227.93 418.669 228.058 418.992 228.058H460.794C460.957 228.063 461.119 228.035 461.271 227.976C461.423 227.917 461.562 227.828 461.679 227.715C461.796 227.601 461.889 227.465 461.952 227.315C462.016 227.165 462.048 227.003 462.048 226.84Z" fill="white"/>
<path opacity="0.5" d="M467.407 228.058H479.697C480.02 228.058 480.33 227.93 480.558 227.702C480.787 227.473 480.915 227.163 480.915 226.84C480.915 226.517 480.787 226.207 480.558 225.979C480.33 225.751 480.02 225.622 479.697 225.622H467.407C467.084 225.622 466.775 225.751 466.546 225.979C466.318 226.207 466.189 226.517 466.189 226.84C466.189 227.163 466.318 227.473 466.546 227.702C466.775 227.93 467.084 228.058 467.407 228.058Z" fill="white"/>
<path opacity="0.5" d="M418.992 220.348H434.826C435.149 220.348 435.459 220.22 435.687 219.992C435.916 219.763 436.044 219.453 436.044 219.13C436.044 218.807 435.916 218.498 435.687 218.269C435.459 218.041 435.149 217.912 434.826 217.912H418.992C418.669 217.912 418.359 218.041 418.131 218.269C417.902 218.498 417.774 218.807 417.774 219.13C417.774 219.453 417.902 219.763 418.131 219.992C418.359 220.22 418.669 220.348 418.992 220.348Z" fill="white"/>
<path d="M493.095 219.13C493.095 218.807 492.967 218.498 492.738 218.269C492.51 218.041 492.2 217.912 491.877 217.912H442.719C442.396 217.912 442.086 218.041 441.857 218.269C441.629 218.498 441.501 218.807 441.501 219.13C441.501 219.453 441.629 219.763 441.857 219.992C442.086 220.22 442.396 220.348 442.719 220.348H491.877C492.2 220.348 492.51 220.22 492.738 219.992C492.967 219.763 493.095 219.453 493.095 219.13Z" fill="white"/>
<path d="M418.992 212.638H447.676C447.999 212.638 448.309 212.51 448.537 212.282C448.766 212.053 448.894 211.743 448.894 211.42C448.894 211.097 448.766 210.788 448.537 210.559C448.309 210.331 447.999 210.202 447.676 210.202H418.992C418.669 210.202 418.359 210.331 418.131 210.559C417.902 210.788 417.774 211.097 417.774 211.42C417.774 211.743 417.902 212.053 418.131 212.282C418.359 212.51 418.669 212.638 418.992 212.638Z" fill="white"/>
<path opacity="0.5" d="M453.096 211.42C453.096 211.743 453.224 212.053 453.453 212.282C453.681 212.51 453.991 212.638 454.314 212.638H461.415C461.738 212.638 462.048 212.51 462.276 212.282C462.505 212.053 462.633 211.743 462.633 211.42C462.633 211.097 462.505 210.788 462.276 210.559C462.048 210.331 461.738 210.202 461.415 210.202H454.314C453.991 210.202 453.681 210.331 453.453 210.559C453.224 210.788 453.096 211.097 453.096 211.42Z" fill="white"/>
<path opacity="0.5" d="M418.992 204.929H452.865C453.188 204.929 453.497 204.8 453.726 204.572C453.954 204.343 454.083 204.034 454.083 203.711C454.083 203.387 453.954 203.078 453.726 202.849C453.497 202.621 453.188 202.493 452.865 202.493H418.992C418.669 202.493 418.359 202.621 418.131 202.849C417.902 203.078 417.774 203.387 417.774 203.711C417.774 204.034 417.902 204.343 418.131 204.572C418.359 204.8 418.669 204.929 418.992 204.929Z" fill="white"/>
<path d="M478.077 204.929H504.057C504.38 204.929 504.69 204.8 504.918 204.572C505.147 204.343 505.275 204.034 505.275 203.711C505.275 203.387 505.147 203.078 504.918 202.849C504.69 202.621 504.38 202.493 504.057 202.493H478.077C477.754 202.493 477.444 202.621 477.216 202.849C476.987 203.078 476.859 203.387 476.859 203.711C476.859 204.034 476.987 204.343 477.216 204.572C477.444 204.8 477.754 204.929 478.077 204.929Z" fill="white"/>
<path opacity="0.2" d="M487.371 171.312V201.591C487.371 203.206 486.729 204.755 485.587 205.897C484.445 207.04 482.896 207.681 481.281 207.681H409.552V174.101C409.556 173.362 409.851 172.655 410.373 172.132C410.895 171.61 411.603 171.315 412.342 171.312H487.371Z" fill="black"/>
<path d="M478.15 86.3197H330.833C329.293 86.3197 328.044 87.5684 328.044 89.1089V195.27C328.044 196.81 329.293 198.059 330.833 198.059H478.15C479.691 198.059 480.939 196.81 480.939 195.27V89.1089C480.939 87.5684 479.691 86.3197 478.15 86.3197Z" fill="#5228AB"/>
<path opacity="0.6" d="M480.939 89.1089V195.27C480.939 195.636 480.867 195.999 480.727 196.337C480.587 196.676 480.381 196.983 480.122 197.242C479.863 197.501 479.556 197.706 479.218 197.847C478.879 197.987 478.516 198.059 478.15 198.059H330.833C330.466 198.061 330.103 197.99 329.764 197.85C329.425 197.71 329.117 197.505 328.857 197.246C328.598 196.986 328.392 196.678 328.253 196.339C328.113 196 328.042 195.636 328.044 195.27V89.1089C328.044 88.3691 328.338 87.6597 328.861 87.1366C329.384 86.6135 330.093 86.3197 330.833 86.3197H478.211C478.939 86.3387 479.631 86.6405 480.141 87.1612C480.65 87.6819 480.936 88.3805 480.939 89.1089Z" fill="white"/>
<path d="M478.041 97.6836H330.931V194.929H478.041V97.6836Z" fill="#263238"/>
<path d="M341.515 109.803C341.675 109.917 341.867 109.977 342.063 109.973C342.254 109.971 342.439 109.909 342.593 109.796C342.746 109.682 342.861 109.524 342.92 109.343C342.979 109.162 342.98 108.966 342.922 108.784C342.865 108.603 342.752 108.443 342.599 108.329L339.907 106.344L342.599 104.358C342.795 104.214 342.925 103.999 342.961 103.759C342.998 103.519 342.938 103.275 342.794 103.079C342.65 102.884 342.435 102.754 342.195 102.717C341.955 102.68 341.711 102.741 341.515 102.884L337.861 105.613C337.747 105.699 337.655 105.811 337.592 105.938C337.529 106.066 337.496 106.207 337.496 106.35C337.496 106.492 337.529 106.633 337.592 106.761C337.655 106.889 337.747 107 337.861 107.087L341.515 109.803Z" fill="white"/>
<path d="M353.878 106.331L351.198 108.329C351.014 108.467 350.891 108.672 350.855 108.899C350.819 109.126 350.872 109.358 351.003 109.547C351.087 109.663 351.197 109.757 351.324 109.823C351.451 109.888 351.591 109.923 351.734 109.925C351.931 109.924 352.124 109.86 352.282 109.742L355.936 107.013C356.054 106.932 356.15 106.823 356.216 106.695C356.282 106.568 356.315 106.426 356.314 106.283C356.312 106.14 356.277 105.999 356.212 105.872C356.146 105.745 356.052 105.636 355.936 105.552L352.282 102.836C352.187 102.751 352.076 102.688 351.955 102.649C351.835 102.61 351.707 102.596 351.581 102.609C351.455 102.622 351.333 102.661 351.223 102.724C351.112 102.787 351.016 102.872 350.941 102.974C350.865 103.076 350.812 103.192 350.784 103.316C350.756 103.44 350.754 103.568 350.778 103.692C350.802 103.817 350.852 103.935 350.924 104.039C350.997 104.143 351.09 104.231 351.198 104.297L353.878 106.331Z" fill="white"/>
<path d="M345.632 109.925C345.732 109.943 345.836 109.943 345.936 109.925C346.124 109.925 346.307 109.866 346.46 109.757C346.613 109.647 346.728 109.493 346.789 109.316L348.713 103.871C348.756 103.759 348.775 103.64 348.77 103.521C348.765 103.401 348.736 103.284 348.685 103.176C348.634 103.068 348.562 102.971 348.472 102.892C348.383 102.813 348.279 102.752 348.165 102.714C348.05 102.666 347.925 102.641 347.8 102.643C347.675 102.645 347.551 102.672 347.437 102.723C347.323 102.775 347.22 102.849 347.136 102.942C347.052 103.034 346.988 103.143 346.947 103.262L345.023 108.707C344.975 108.826 344.954 108.954 344.959 109.083C344.965 109.211 344.997 109.337 345.055 109.452C345.112 109.567 345.194 109.668 345.293 109.75C345.392 109.831 345.508 109.891 345.632 109.925Z" fill="white"/>
<path opacity="0.5" d="M360.857 110.278H365.729C366.052 110.278 366.362 110.149 366.59 109.921C366.818 109.693 366.947 109.383 366.947 109.06C366.947 108.737 366.818 108.427 366.59 108.198C366.362 107.97 366.052 107.842 365.729 107.842H360.857C360.534 107.842 360.224 107.97 359.996 108.198C359.767 108.427 359.639 108.737 359.639 109.06C359.639 109.383 359.767 109.693 359.996 109.921C360.224 110.149 360.534 110.278 360.857 110.278Z" fill="white"/>
<path opacity="0.5" d="M423.352 119.936H429.857C430.18 119.936 430.489 119.808 430.718 119.58C430.946 119.351 431.075 119.041 431.075 118.718C431.075 118.395 430.946 118.086 430.718 117.857C430.489 117.629 430.18 117.5 429.857 117.5H423.352C423.029 117.5 422.72 117.629 422.491 117.857C422.263 118.086 422.134 118.395 422.134 118.718C422.134 119.041 422.263 119.351 422.491 119.58C422.72 119.808 423.029 119.936 423.352 119.936Z" fill="white"/>
<path d="M352.855 118.718C352.855 119.041 352.983 119.351 353.211 119.58C353.44 119.808 353.75 119.936 354.073 119.936H414.973C415.296 119.936 415.605 119.808 415.834 119.58C416.062 119.351 416.191 119.041 416.191 118.718C416.191 118.395 416.062 118.086 415.834 117.857C415.605 117.629 415.296 117.5 414.973 117.5H354.073C353.75 117.5 353.44 117.629 353.211 117.857C352.983 118.086 352.855 118.395 352.855 118.718Z" fill="white"/>
<path opacity="0.5" d="M337.52 119.936H346.838C347.161 119.936 347.47 119.808 347.699 119.58C347.927 119.351 348.056 119.041 348.056 118.718C348.056 118.395 347.927 118.086 347.699 117.857C347.47 117.629 347.161 117.5 346.838 117.5H337.52C337.197 117.5 336.887 117.629 336.659 117.857C336.43 118.086 336.302 118.395 336.302 118.718C336.302 119.041 336.43 119.351 336.659 119.58C336.887 119.808 337.197 119.936 337.52 119.936Z" fill="white"/>
<path d="M400.625 127.646C400.948 127.646 401.257 127.518 401.486 127.29C401.714 127.061 401.843 126.751 401.843 126.428C401.843 126.105 401.714 125.796 401.486 125.567C401.257 125.339 400.948 125.21 400.625 125.21H376.362C376.039 125.21 375.729 125.339 375.501 125.567C375.272 125.796 375.144 126.105 375.144 126.428C375.144 126.751 375.272 127.061 375.501 127.29C375.729 127.518 376.039 127.646 376.362 127.646H400.625Z" fill="white"/>
<path d="M354.073 127.646H371.283C371.606 127.646 371.916 127.518 372.144 127.29C372.373 127.061 372.501 126.751 372.501 126.428C372.501 126.105 372.373 125.796 372.144 125.567C371.916 125.339 371.606 125.21 371.283 125.21H354.073C353.75 125.21 353.44 125.339 353.211 125.567C352.983 125.796 352.855 126.105 352.855 126.428C352.855 126.751 352.983 127.061 353.211 127.29C353.44 127.518 353.75 127.646 354.073 127.646Z" fill="white"/>
<path opacity="0.5" d="M337.52 127.646H346.679C347.002 127.646 347.312 127.518 347.541 127.29C347.769 127.061 347.897 126.751 347.897 126.428C347.897 126.105 347.769 125.796 347.541 125.567C347.312 125.339 347.002 125.21 346.679 125.21H337.52C337.197 125.21 336.887 125.339 336.659 125.567C336.43 125.796 336.302 126.105 336.302 126.428C336.302 126.751 336.43 127.061 336.659 127.29C336.887 127.518 337.197 127.646 337.52 127.646Z" fill="white"/>
<path d="M389.663 134.138C389.663 133.815 389.534 133.505 389.306 133.277C389.077 133.049 388.768 132.92 388.445 132.92H353.951C353.628 132.92 353.318 133.049 353.09 133.277C352.861 133.505 352.733 133.815 352.733 134.138C352.733 134.461 352.861 134.771 353.09 135C353.318 135.228 353.628 135.356 353.951 135.356H388.445C388.768 135.356 389.077 135.228 389.306 135C389.534 134.771 389.663 134.461 389.663 134.138Z" fill="white"/>
<path opacity="0.5" d="M337.52 135.356H346.777C347.1 135.356 347.41 135.228 347.638 135C347.866 134.771 347.995 134.461 347.995 134.138C347.995 133.815 347.866 133.505 347.638 133.277C347.41 133.049 347.1 132.92 346.777 132.92H337.52C337.197 132.92 336.887 133.049 336.659 133.277C336.43 133.505 336.302 133.815 336.302 134.138C336.302 134.461 336.43 134.771 336.659 135C336.887 135.228 337.197 135.356 337.52 135.356Z" fill="white"/>
<path d="M377.58 143.066H412.902C413.225 143.066 413.535 142.938 413.763 142.71C413.992 142.481 414.12 142.171 414.12 141.848C414.12 141.525 413.992 141.215 413.763 140.987C413.535 140.759 413.225 140.63 412.902 140.63H377.58C377.257 140.63 376.947 140.759 376.719 140.987C376.49 141.215 376.362 141.525 376.362 141.848C376.362 142.171 376.49 142.481 376.719 142.71C376.947 142.938 377.257 143.066 377.58 143.066Z" fill="white"/>
<path d="M353.975 140.63C353.652 140.63 353.342 140.759 353.114 140.987C352.886 141.215 352.757 141.525 352.757 141.848C352.757 142.171 352.886 142.481 353.114 142.71C353.342 142.938 353.652 143.066 353.975 143.066H370.016C370.339 143.066 370.649 142.938 370.878 142.71C371.106 142.481 371.234 142.171 371.234 141.848C371.234 141.525 371.106 141.215 370.878 140.987C370.649 140.759 370.339 140.63 370.016 140.63H353.975Z" fill="white"/>
<path opacity="0.5" d="M337.52 143.066H346.667C346.99 143.066 347.3 142.938 347.528 142.71C347.757 142.481 347.885 142.171 347.885 141.848C347.885 141.525 347.757 141.215 347.528 140.987C347.3 140.759 346.99 140.63 346.667 140.63H337.52C337.197 140.63 336.887 140.759 336.659 140.987C336.43 141.215 336.302 141.525 336.302 141.848C336.302 142.171 336.43 142.481 336.659 142.71C336.887 142.938 337.197 143.066 337.52 143.066Z" fill="white"/>
<path d="M367.739 148.34H359.785C359.462 148.34 359.152 148.469 358.924 148.697C358.695 148.925 358.567 149.235 358.567 149.558C358.567 149.881 358.695 150.191 358.924 150.419C359.152 150.648 359.462 150.776 359.785 150.776H367.739C368.062 150.776 368.371 150.648 368.6 150.419C368.828 150.191 368.957 149.881 368.957 149.558C368.957 149.235 368.828 148.925 368.6 148.697C368.371 148.469 368.062 148.34 367.739 148.34Z" fill="white"/>
<path d="M354.109 148.34H337.52C337.197 148.34 336.887 148.469 336.659 148.697C336.43 148.925 336.302 149.235 336.302 149.558C336.302 149.881 336.43 150.191 336.659 150.419C336.887 150.648 337.197 150.776 337.52 150.776H354.109C354.432 150.776 354.742 150.648 354.97 150.419C355.199 150.191 355.327 149.881 355.327 149.558C355.327 149.235 355.199 148.925 354.97 148.697C354.742 148.469 354.432 148.34 354.109 148.34Z" fill="white"/>
<path d="M406.325 157.268C406.325 157.591 406.453 157.901 406.682 158.129C406.91 158.358 407.22 158.486 407.543 158.486H472.487C472.81 158.486 473.119 158.358 473.348 158.129C473.576 157.901 473.705 157.591 473.705 157.268C473.705 156.945 473.576 156.635 473.348 156.407C473.119 156.178 472.81 156.05 472.487 156.05H407.543C407.22 156.05 406.91 156.178 406.682 156.407C406.453 156.635 406.325 156.945 406.325 157.268Z" fill="white"/>
<path opacity="0.5" d="M388.676 156.05C388.353 156.05 388.043 156.178 387.815 156.407C387.586 156.635 387.458 156.945 387.458 157.268C387.458 157.591 387.586 157.901 387.815 158.129C388.043 158.358 388.353 158.486 388.676 158.486H400.966C401.289 158.486 401.598 158.358 401.827 158.129C402.055 157.901 402.184 157.591 402.184 157.268C402.184 156.945 402.055 156.635 401.827 156.407C401.598 156.178 401.289 156.05 400.966 156.05H388.676Z" fill="white"/>
<path opacity="0.5" d="M472.487 163.76H456.653C456.33 163.76 456.02 163.888 455.791 164.117C455.563 164.345 455.435 164.655 455.435 164.978C455.435 165.301 455.563 165.611 455.791 165.839C456.02 166.068 456.33 166.196 456.653 166.196H472.487C472.81 166.196 473.119 166.068 473.348 165.839C473.576 165.611 473.705 165.301 473.705 164.978C473.705 164.655 473.576 164.345 473.348 164.117C473.119 163.888 472.81 163.76 472.487 163.76Z" fill="white"/>
<path d="M450.027 164.978C450.027 164.655 449.898 164.345 449.67 164.117C449.441 163.888 449.132 163.76 448.809 163.76H382.586C382.263 163.76 381.953 163.888 381.725 164.117C381.496 164.345 381.368 164.655 381.368 164.978C381.368 165.301 381.496 165.611 381.725 165.839C381.953 166.068 382.263 166.196 382.586 166.196H448.809C449.132 166.196 449.441 166.068 449.67 165.839C449.898 165.611 450.027 165.301 450.027 164.978Z" fill="white"/>
<path d="M472.487 171.47H443.803C443.48 171.47 443.17 171.598 442.941 171.827C442.713 172.055 442.585 172.365 442.585 172.688C442.585 173.011 442.713 173.321 442.941 173.549C443.17 173.778 443.48 173.906 443.803 173.906H472.487C472.81 173.906 473.119 173.778 473.348 173.549C473.576 173.321 473.705 173.011 473.705 172.688C473.705 172.365 473.576 172.055 473.348 171.827C473.119 171.598 472.81 171.47 472.487 171.47Z" fill="white"/>
<path opacity="0.5" d="M430.088 171.47C429.765 171.47 429.455 171.598 429.227 171.827C428.998 172.055 428.87 172.365 428.87 172.688C428.87 173.011 428.998 173.321 429.227 173.549C429.455 173.778 429.765 173.906 430.088 173.906H437.262C437.585 173.906 437.895 173.778 438.123 173.549C438.352 173.321 438.48 173.011 438.48 172.688C438.48 172.365 438.352 172.055 438.123 171.827C437.895 171.598 437.585 171.47 437.262 171.47H430.088Z" fill="white"/>
<path d="M472.487 179.18H415.472C415.149 179.18 414.839 179.308 414.611 179.537C414.382 179.765 414.254 180.075 414.254 180.398C414.254 180.721 414.382 181.031 414.611 181.259C414.839 181.488 415.149 181.616 415.472 181.616H472.487C472.81 181.616 473.119 181.488 473.348 181.259C473.576 181.031 473.705 180.721 473.705 180.398C473.705 180.075 473.576 179.765 473.348 179.537C473.119 179.308 472.81 179.18 472.487 179.18Z" fill="white"/>
<path d="M390.308 179.18H370.406C370.083 179.18 369.773 179.308 369.545 179.537C369.316 179.765 369.188 180.075 369.188 180.398C369.188 180.721 369.316 181.031 369.545 181.259C369.773 181.488 370.083 181.616 370.406 181.616H390.308C390.631 181.616 390.941 181.488 391.169 181.259C391.398 181.031 391.526 180.721 391.526 180.398C391.526 180.075 391.398 179.765 391.169 179.537C390.941 179.308 390.631 179.18 390.308 179.18Z" fill="white"/>
<path opacity="0.2" d="M409.552 134.406V198.059H330.833C330.466 198.061 330.103 197.99 329.764 197.85C329.425 197.71 329.117 197.505 328.857 197.246C328.598 196.986 328.392 196.678 328.253 196.339C328.113 196 328.042 195.637 328.044 195.27V128.986H404.132C405.57 128.986 406.948 129.557 407.965 130.574C408.981 131.59 409.552 132.969 409.552 134.406Z" fill="black"/>
<path d="M396.715 133.7H226.256C224.715 133.7 223.466 134.949 223.466 136.489V242.65C223.466 244.19 224.715 245.439 226.256 245.439H396.715C398.255 245.439 399.504 244.19 399.504 242.65V136.489C399.504 134.949 398.255 133.7 396.715 133.7Z" fill="#5228AB"/>
<path opacity="0.6" d="M396.715 133.7H226.256C224.715 133.7 223.466 134.949 223.466 136.489V242.65C223.466 244.19 224.715 245.439 226.256 245.439H396.715C398.255 245.439 399.504 244.19 399.504 242.65V136.489C399.504 134.949 398.255 133.7 396.715 133.7Z" fill="white"/>
<path d="M396.617 145.052H226.365V242.297H396.617V145.052Z" fill="#263238"/>
<path d="M260.189 165.465H232.942C232.619 165.465 232.31 165.594 232.081 165.822C231.853 166.05 231.724 166.36 231.724 166.683C231.724 167.006 231.853 167.316 232.081 167.545C232.31 167.773 232.619 167.901 232.942 167.901H260.189C260.512 167.901 260.822 167.773 261.05 167.545C261.279 167.316 261.407 167.006 261.407 166.683C261.407 166.36 261.279 166.05 261.05 165.822C260.822 165.594 260.512 165.465 260.189 165.465Z" fill="white"/>
<path d="M260.189 173.066H236.597C236.274 173.066 235.964 173.194 235.735 173.422C235.507 173.651 235.379 173.961 235.379 174.284C235.379 174.607 235.507 174.916 235.735 175.145C235.964 175.373 236.274 175.502 236.597 175.502H260.189C260.512 175.502 260.822 175.373 261.05 175.145C261.279 174.916 261.407 174.607 261.407 174.284C261.407 173.961 261.279 173.651 261.05 173.422C260.822 173.194 260.512 173.066 260.189 173.066Z" fill="white"/>
<path opacity="0.5" d="M260.189 180.666H232.942C232.619 180.666 232.31 180.794 232.081 181.023C231.853 181.251 231.724 181.561 231.724 181.884C231.724 182.207 231.853 182.517 232.081 182.745C232.31 182.974 232.619 183.102 232.942 183.102H260.189C260.512 183.102 260.822 182.974 261.05 182.745C261.279 182.517 261.407 182.207 261.407 181.884C261.407 181.561 261.279 181.251 261.05 181.023C260.822 180.794 260.512 180.666 260.189 180.666Z" fill="white"/>
<path d="M260.189 188.266H243.905C243.581 188.266 243.272 188.395 243.043 188.623C242.815 188.851 242.687 189.161 242.687 189.484C242.687 189.807 242.815 190.117 243.043 190.346C243.272 190.574 243.581 190.702 243.905 190.702H260.189C260.512 190.702 260.822 190.574 261.05 190.346C261.279 190.117 261.407 189.807 261.407 189.484C261.407 189.161 261.279 188.851 261.05 188.623C260.822 188.395 260.512 188.266 260.189 188.266Z" fill="white"/>
<path d="M260.189 195.867H232.942C232.619 195.867 232.31 195.995 232.081 196.223C231.853 196.452 231.724 196.762 231.724 197.085C231.724 197.408 231.853 197.717 232.081 197.946C232.31 198.174 232.619 198.303 232.942 198.303H260.189C260.512 198.303 260.822 198.174 261.05 197.946C261.279 197.717 261.407 197.408 261.407 197.085C261.407 196.762 261.279 196.452 261.05 196.223C260.822 195.995 260.512 195.867 260.189 195.867Z" fill="white"/>
<path d="M260.189 203.467H237.814C237.491 203.467 237.182 203.595 236.953 203.824C236.725 204.052 236.596 204.362 236.596 204.685C236.596 205.008 236.725 205.318 236.953 205.546C237.182 205.775 237.491 205.903 237.814 205.903H260.189C260.512 205.903 260.822 205.775 261.05 205.546C261.279 205.318 261.407 205.008 261.407 204.685C261.407 204.362 261.279 204.052 261.05 203.824C260.822 203.595 260.512 203.467 260.189 203.467Z" fill="white"/>
<path d="M260.189 211.067H237.814C237.491 211.067 237.182 211.196 236.953 211.424C236.725 211.652 236.596 211.962 236.596 212.285C236.596 212.608 236.725 212.918 236.953 213.146C237.182 213.375 237.491 213.503 237.814 213.503H260.189C260.512 213.503 260.822 213.375 261.05 213.146C261.279 212.918 261.407 212.608 261.407 212.285C261.407 211.962 261.279 211.652 261.05 211.424C260.822 211.196 260.512 211.067 260.189 211.067Z" fill="white"/>
<path d="M260.189 218.668H235.379C235.055 218.668 234.746 218.796 234.517 219.024C234.289 219.253 234.161 219.563 234.161 219.886C234.161 220.209 234.289 220.518 234.517 220.747C234.746 220.975 235.055 221.104 235.379 221.104H260.189C260.512 221.104 260.822 220.975 261.05 220.747C261.279 220.518 261.407 220.209 261.407 219.886C261.407 219.563 261.279 219.253 261.05 219.024C260.822 218.796 260.512 218.668 260.189 218.668Z" fill="white"/>
<path opacity="0.5" d="M260.189 226.268H243.905C243.581 226.268 243.272 226.396 243.043 226.625C242.815 226.853 242.687 227.163 242.687 227.486C242.687 227.809 242.815 228.119 243.043 228.347C243.272 228.576 243.581 228.704 243.905 228.704H260.189C260.512 228.704 260.822 228.576 261.05 228.347C261.279 228.119 261.407 227.809 261.407 227.486C261.407 227.163 261.279 226.853 261.05 226.625C260.822 226.396 260.512 226.268 260.189 226.268Z" fill="white"/>
<path opacity="0.5" d="M260.189 157.865H240.25C239.927 157.865 239.618 157.993 239.389 158.222C239.161 158.45 239.032 158.76 239.032 159.083C239.032 159.406 239.161 159.716 239.389 159.944C239.618 160.173 239.927 160.301 240.25 160.301H260.189C260.512 160.301 260.822 160.173 261.05 159.944C261.279 159.716 261.407 159.406 261.407 159.083C261.407 158.76 261.279 158.45 261.05 158.222C260.822 157.993 260.512 157.865 260.189 157.865Z" fill="white"/>
<path d="M260.189 150.265H232.942C232.619 150.265 232.31 150.393 232.081 150.621C231.853 150.85 231.724 151.16 231.724 151.483C231.724 151.806 231.853 152.115 232.081 152.344C232.31 152.572 232.619 152.701 232.942 152.701H260.189C260.512 152.701 260.822 152.572 261.05 152.344C261.279 152.115 261.407 151.806 261.407 151.483C261.407 151.16 261.279 150.85 261.05 150.621C260.822 150.393 260.512 150.265 260.189 150.265Z" fill="white"/>
<path d="M260.189 233.856H232.942C232.619 233.856 232.31 233.984 232.081 234.213C231.853 234.441 231.724 234.751 231.724 235.074C231.724 235.397 231.853 235.707 232.081 235.935C232.31 236.164 232.619 236.292 232.942 236.292H260.189C260.512 236.292 260.822 236.164 261.05 235.935C261.279 235.707 261.407 235.397 261.407 235.074C261.407 234.751 261.279 234.441 261.05 234.213C260.822 233.984 260.512 233.856 260.189 233.856Z" fill="white"/>
<path opacity="0.5" d="M274.805 165.161H269.482V168.206H274.805V165.161Z" fill="white"/>
<path opacity="0.5" d="M274.805 172.761H269.482V175.806H274.805V172.761Z" fill="white"/>
<path opacity="0.5" d="M274.805 180.361H269.482V183.406H274.805V180.361Z" fill="white"/>
<path opacity="0.5" d="M274.805 187.962H269.482V191.007H274.805V187.962Z" fill="white"/>
<path opacity="0.5" d="M274.805 195.562H269.482V198.607H274.805V195.562Z" fill="white"/>
<path opacity="0.5" d="M274.805 203.162H269.482V206.207H274.805V203.162Z" fill="white"/>
<path opacity="0.5" d="M274.805 210.763H269.482V213.808H274.805V210.763Z" fill="white"/>
<path opacity="0.5" d="M274.805 218.363H269.482V221.408H274.805V218.363Z" fill="white"/>
<path opacity="0.5" d="M274.805 225.963H269.482V229.008H274.805V225.963Z" fill="white"/>
<path opacity="0.5" d="M274.805 157.56H269.482V160.605H274.805V157.56Z" fill="white"/>
<path opacity="0.5" d="M274.805 149.96H269.482V153.005H274.805V149.96Z" fill="white"/>
<path opacity="0.5" d="M274.805 233.564H269.482V236.609H274.805V233.564Z" fill="white"/>
<path d="M302.369 166.683C302.369 167.006 302.497 167.316 302.725 167.545C302.954 167.773 303.263 167.901 303.587 167.901H391.733C392.056 167.901 392.366 167.773 392.594 167.545C392.823 167.316 392.951 167.006 392.951 166.683C392.951 166.36 392.823 166.05 392.594 165.822C392.366 165.594 392.056 165.465 391.733 165.465H303.587C303.263 165.465 302.954 165.594 302.725 165.822C302.497 166.05 302.369 166.36 302.369 166.683Z" fill="white"/>
<path d="M391.733 173.066H343.476C343.153 173.066 342.843 173.194 342.615 173.422C342.386 173.651 342.258 173.961 342.258 174.284C342.258 174.607 342.386 174.916 342.615 175.145C342.843 175.373 343.153 175.502 343.476 175.502H391.745C392.068 175.502 392.378 175.373 392.607 175.145C392.835 174.916 392.963 174.607 392.963 174.284C392.963 173.961 392.835 173.651 392.607 173.422C392.378 173.194 392.068 173.066 391.745 173.066H391.733Z" fill="white"/>
<path opacity="0.5" d="M332.002 173.066H316.984C316.661 173.066 316.352 173.194 316.123 173.422C315.895 173.651 315.766 173.961 315.766 174.284C315.766 174.607 315.895 174.916 316.123 175.145C316.352 175.373 316.661 175.502 316.984 175.502H332.002C332.325 175.502 332.635 175.373 332.864 175.145C333.092 174.916 333.22 174.607 333.22 174.284C333.22 173.961 333.092 173.651 332.864 173.422C332.635 173.194 332.325 173.066 332.002 173.066Z" fill="white"/>
<path d="M362.501 180.666H295.511C295.188 180.666 294.878 180.794 294.65 181.023C294.421 181.251 294.293 181.561 294.293 181.884C294.293 182.207 294.421 182.517 294.65 182.745C294.878 182.974 295.188 183.102 295.511 183.102H362.501C362.824 183.102 363.134 182.974 363.362 182.745C363.591 182.517 363.719 182.207 363.719 181.884C363.719 181.561 363.591 181.251 363.362 181.023C363.134 180.794 362.824 180.666 362.501 180.666Z" fill="white"/>
<path opacity="0.5" d="M281.662 183.102H286.413C286.736 183.102 287.045 182.974 287.274 182.745C287.502 182.517 287.631 182.207 287.631 181.884C287.631 181.561 287.502 181.251 287.274 181.023C287.045 180.794 286.736 180.666 286.413 180.666H281.662C281.339 180.666 281.03 180.794 280.801 181.023C280.573 181.251 280.444 181.561 280.444 181.884C280.444 182.207 280.573 182.517 280.801 182.745C281.03 182.974 281.339 183.102 281.662 183.102Z" fill="white"/>
<path d="M371.027 189.484C371.027 189.161 370.899 188.851 370.67 188.623C370.442 188.395 370.132 188.266 369.809 188.266H307.691C307.368 188.266 307.058 188.395 306.83 188.623C306.601 188.851 306.473 189.161 306.473 189.484C306.473 189.807 306.601 190.117 306.83 190.346C307.058 190.574 307.368 190.702 307.691 190.702H369.809C370.132 190.702 370.442 190.574 370.67 190.346C370.899 190.117 371.027 189.807 371.027 189.484Z" fill="white"/>
<path d="M281.662 190.702H299.189C299.513 190.702 299.822 190.574 300.051 190.346C300.279 190.117 300.407 189.807 300.407 189.484C300.407 189.161 300.279 188.851 300.051 188.623C299.822 188.395 299.513 188.266 299.189 188.266H281.662C281.339 188.266 281.03 188.395 280.801 188.623C280.573 188.851 280.444 189.161 280.444 189.484C280.444 189.807 280.573 190.117 280.801 190.346C281.03 190.574 281.339 190.702 281.662 190.702Z" fill="white"/>
<path d="M281.662 198.303H347.885C348.208 198.303 348.518 198.174 348.746 197.946C348.975 197.717 349.103 197.408 349.103 197.085C349.103 196.762 348.975 196.452 348.746 196.223C348.518 195.995 348.208 195.867 347.885 195.867H281.662C281.339 195.867 281.03 195.995 280.801 196.223C280.573 196.452 280.444 196.762 280.444 197.085C280.444 197.408 280.573 197.717 280.801 197.946C281.03 198.174 281.339 198.303 281.662 198.303Z" fill="white"/>
<path d="M324.5 203.467C324.177 203.467 323.867 203.595 323.638 203.824C323.41 204.052 323.282 204.362 323.282 204.685C323.282 205.008 323.41 205.318 323.638 205.546C323.867 205.775 324.177 205.903 324.5 205.903H358.847C359.17 205.903 359.48 205.775 359.708 205.546C359.937 205.318 360.065 205.008 360.065 204.685C360.065 204.362 359.937 204.052 359.708 203.824C359.48 203.595 359.17 203.467 358.847 203.467H324.5Z" fill="white"/>
<path d="M281.662 205.903H311.394C311.717 205.903 312.027 205.775 312.255 205.546C312.484 205.318 312.612 205.008 312.612 204.685C312.612 204.362 312.484 204.052 312.255 203.824C312.027 203.595 311.717 203.467 311.394 203.467H281.662C281.339 203.467 281.03 203.595 280.801 203.824C280.573 204.052 280.444 204.362 280.444 204.685C280.444 205.008 280.573 205.318 280.801 205.546C281.03 205.775 281.339 205.903 281.662 205.903Z" fill="white"/>
<path d="M391.733 211.067H310.895C310.571 211.067 310.262 211.196 310.033 211.424C309.805 211.652 309.677 211.962 309.677 212.285C309.677 212.608 309.805 212.918 310.033 213.146C310.262 213.375 310.571 213.503 310.895 213.503H391.733C392.056 213.503 392.366 213.375 392.594 213.146C392.823 212.918 392.951 212.608 392.951 212.285C392.951 211.962 392.823 211.652 392.594 211.424C392.366 211.196 392.056 211.067 391.733 211.067Z" fill="white"/>
<path d="M391.733 218.668H321.856C321.533 218.668 321.224 218.796 320.995 219.024C320.767 219.253 320.638 219.563 320.638 219.886C320.638 220.209 320.767 220.518 320.995 220.747C321.224 220.975 321.533 221.104 321.856 221.104H391.733C392.056 221.104 392.366 220.975 392.594 220.747C392.823 220.518 392.951 220.209 392.951 219.886C392.951 219.563 392.823 219.253 392.594 219.024C392.366 218.796 392.056 218.668 391.733 218.668Z" fill="white"/>
<path opacity="0.5" d="M391.733 226.268H377.361C377.038 226.268 376.728 226.396 376.499 226.625C376.271 226.853 376.143 227.163 376.143 227.486C376.143 227.809 376.271 228.119 376.499 228.347C376.728 228.576 377.038 228.704 377.361 228.704H391.733C392.056 228.704 392.366 228.576 392.594 228.347C392.823 228.119 392.951 227.809 392.951 227.486C392.951 227.163 392.823 226.853 392.594 226.625C392.366 226.396 392.056 226.268 391.733 226.268Z" fill="white"/>
<path d="M367.312 226.268H314.548C314.225 226.268 313.916 226.396 313.687 226.625C313.459 226.853 313.33 227.163 313.33 227.486C313.33 227.809 313.459 228.119 313.687 228.347C313.916 228.576 314.225 228.704 314.548 228.704H367.312C367.635 228.704 367.945 228.576 368.173 228.347C368.402 228.119 368.53 227.809 368.53 227.486C368.53 227.163 368.402 226.853 368.173 226.625C367.945 226.396 367.635 226.268 367.312 226.268Z" fill="white"/>
<path d="M281.662 160.301H338.141C338.464 160.301 338.774 160.173 339.002 159.944C339.231 159.716 339.359 159.406 339.359 159.083C339.359 158.76 339.231 158.45 339.002 158.222C338.774 157.993 338.464 157.865 338.141 157.865H281.662C281.339 157.865 281.03 157.993 280.801 158.222C280.573 158.45 280.444 158.76 280.444 159.083C280.444 159.406 280.573 159.716 280.801 159.944C281.03 160.173 281.339 160.301 281.662 160.301Z" fill="white"/>
<path d="M281.662 152.701H369.809C370.132 152.701 370.442 152.572 370.67 152.344C370.899 152.115 371.027 151.806 371.027 151.483C371.027 151.16 370.899 150.85 370.67 150.621C370.442 150.393 370.132 150.265 369.809 150.265H281.662C281.339 150.265 281.03 150.393 280.801 150.621C280.573 150.85 280.444 151.16 280.444 151.483C280.444 151.806 280.573 152.115 280.801 152.344C281.03 152.572 281.339 152.701 281.662 152.701Z" fill="white"/>
<path d="M363.719 233.856H326.302C325.979 233.856 325.669 233.984 325.441 234.213C325.213 234.441 325.084 234.751 325.084 235.074C325.084 235.397 325.213 235.707 325.441 235.935C325.669 236.164 325.979 236.292 326.302 236.292H363.719C364.042 236.292 364.352 236.164 364.58 235.935C364.809 235.707 364.937 235.397 364.937 235.074C364.937 234.751 364.809 234.441 364.58 234.213C364.352 233.984 364.042 233.856 363.719 233.856Z" fill="white"/>
<path opacity="0.5" d="M315.693 233.856H281.662C281.339 233.856 281.03 233.984 280.801 234.213C280.573 234.441 280.444 234.751 280.444 235.074C280.444 235.397 280.573 235.707 280.801 235.935C281.03 236.164 281.339 236.292 281.662 236.292H315.693C316.016 236.292 316.326 236.164 316.555 235.935C316.783 235.707 316.911 235.397 316.911 235.074C316.911 234.751 316.783 234.441 316.555 234.213C316.326 233.984 316.016 233.856 315.693 233.856Z" fill="white"/>
<path opacity="0.5" d="M350.674 160.301C350.997 160.301 351.307 160.173 351.536 159.944C351.764 159.716 351.892 159.406 351.892 159.083C351.892 158.76 351.764 158.45 351.536 158.222C351.307 157.993 350.997 157.865 350.674 157.865H346.29C345.966 157.865 345.657 157.993 345.428 158.222C345.2 158.45 345.072 158.76 345.072 159.083C345.072 159.406 345.2 159.716 345.428 159.944C345.657 160.173 345.966 160.301 346.29 160.301H350.674Z" fill="white"/>
<path opacity="0.5" d="M297.289 166.683C297.289 166.36 297.161 166.05 296.933 165.822C296.704 165.594 296.394 165.465 296.071 165.465H290.188C289.865 165.465 289.556 165.594 289.327 165.822C289.099 166.05 288.97 166.36 288.97 166.683C288.97 167.006 289.099 167.316 289.327 167.545C289.556 167.773 289.865 167.901 290.188 167.901H296.071C296.394 167.901 296.704 167.773 296.933 167.545C297.161 167.316 297.289 167.006 297.289 166.683Z" fill="white"/>
<path opacity="0.5" d="M364.45 197.085C364.45 196.762 364.322 196.452 364.093 196.223C363.865 195.995 363.555 195.867 363.232 195.867H356.801C356.478 195.867 356.168 195.995 355.94 196.223C355.711 196.452 355.583 196.762 355.583 197.085C355.583 197.408 355.711 197.717 355.94 197.946C356.168 198.174 356.478 198.303 356.801 198.303H363.232C363.555 198.303 363.865 198.174 364.093 197.946C364.322 197.717 364.45 197.408 364.45 197.085Z" fill="white"/>
<path opacity="0.5" d="M385.534 190.702C385.857 190.702 386.166 190.574 386.395 190.346C386.623 190.117 386.752 189.807 386.752 189.484C386.752 189.161 386.623 188.851 386.395 188.623C386.166 188.395 385.857 188.266 385.534 188.266H380.308C379.985 188.266 379.676 188.395 379.447 188.623C379.219 188.851 379.09 189.161 379.09 189.484C379.09 189.807 379.219 190.117 379.447 190.346C379.676 190.574 379.985 190.702 380.308 190.702H385.534Z" fill="white"/>
<path opacity="0.5" d="M301.102 211.067C300.779 211.067 300.469 211.196 300.241 211.424C300.012 211.652 299.884 211.962 299.884 212.285C299.884 212.608 300.012 212.918 300.241 213.146C300.469 213.375 300.779 213.503 301.102 213.503H306.351C306.674 213.503 306.984 213.375 307.213 213.146C307.441 212.918 307.569 212.608 307.569 212.285C307.569 211.962 307.441 211.652 307.213 211.424C306.984 211.196 306.674 211.067 306.351 211.067H301.102Z" fill="white"/>
<path d="M170.033 193.674H129.754C127.466 193.674 125.612 195.528 125.612 197.815V219.605C125.612 221.893 127.466 223.747 129.754 223.747H170.033C172.32 223.747 174.174 221.893 174.174 219.605V197.815C174.174 195.528 172.32 193.674 170.033 193.674Z" fill="#5228AB"/>
<path d="M157.256 222.224C157.256 222.224 159.095 230.616 169.814 233.868C169.814 233.868 164.235 228.826 165.49 222.224H157.256Z" fill="#5228AB"/>
<path d="M131.958 198.412V203.467H131.434V198.875H130.216V198.412H131.958Z" fill="white"/>
<path d="M133.152 200.97C133.152 199.362 134.004 198.412 135.174 198.412C136.343 198.412 137.183 199.362 137.183 200.97C137.183 202.578 136.343 203.54 135.174 203.54C134.004 203.54 133.152 202.541 133.152 200.97ZM136.66 200.97C136.66 199.63 136.051 198.887 135.174 198.887C134.297 198.887 133.688 199.63 133.688 200.97C133.688 202.31 134.284 203.065 135.174 203.065C136.063 203.065 136.66 202.285 136.66 200.97Z" fill="white"/>
<path d="M137.926 200.97C137.926 199.362 138.767 198.412 139.936 198.412C141.105 198.412 141.958 199.362 141.958 200.97C141.958 202.578 141.105 203.54 139.936 203.54C138.767 203.54 137.926 202.541 137.926 200.97ZM141.422 200.97C141.422 199.63 140.825 198.887 139.936 198.887C139.047 198.887 138.45 199.63 138.45 200.97C138.45 202.31 139.059 203.065 139.936 203.065C140.813 203.065 141.422 202.285 141.422 200.97Z" fill="white"/>
<path d="M144.089 198.412V203.467H143.566V198.875H142.348V198.412H144.089Z" fill="white"/>
<path d="M146.684 198.412V203.467H146.16V198.875H144.942V198.412H146.684Z" fill="white"/>
<path d="M147.89 200.97C147.89 199.362 148.73 198.412 149.899 198.412C151.069 198.412 151.921 199.362 151.921 200.97C151.921 202.578 151.069 203.54 149.899 203.54C148.73 203.54 147.89 202.541 147.89 200.97ZM151.385 200.97C151.385 199.63 150.776 198.887 149.899 198.887C149.022 198.887 148.413 199.63 148.413 200.97C148.413 202.31 149.022 203.065 149.899 203.065C150.776 203.065 151.385 202.285 151.385 200.97Z" fill="white"/>
<path d="M154.053 198.412V203.467H153.529V198.875H152.311V198.412H154.053Z" fill="white"/>
<path d="M155.246 200.97C155.246 199.362 156.099 198.412 157.256 198.412C158.413 198.412 159.278 199.362 159.278 200.97C159.278 202.578 158.425 203.54 157.256 203.54C156.087 203.54 155.246 202.541 155.246 200.97ZM158.742 200.97C158.742 199.63 158.145 198.887 157.256 198.887C156.367 198.887 155.782 199.63 155.782 200.97C155.782 202.31 156.379 203.065 157.256 203.065C158.133 203.065 158.742 202.285 158.742 200.97Z" fill="white"/>
<path d="M160.021 200.97C160.021 199.362 160.861 198.412 162.03 198.412C163.2 198.412 164.052 199.362 164.052 200.97C164.052 202.578 163.2 203.54 162.03 203.54C160.861 203.54 160.021 202.541 160.021 200.97ZM163.516 200.97C163.516 199.63 162.907 198.887 162.03 198.887C161.153 198.887 160.544 199.63 160.544 200.97C160.544 202.31 161.153 203.065 162.03 203.065C162.907 203.065 163.516 202.285 163.516 200.97Z" fill="white"/>
<path d="M166.184 198.412V203.467H165.648V198.875H164.43V198.412H166.184Z" fill="white"/>
<path d="M168.778 198.412V203.467H168.267V198.875H167.049V198.412H168.778Z" fill="white"/>
<path d="M130.557 208.278C130.557 206.67 131.398 205.72 132.567 205.72C133.736 205.72 134.589 206.67 134.589 208.278C134.589 209.886 133.736 210.848 132.567 210.848C131.398 210.848 130.557 209.849 130.557 208.278ZM134.053 208.278C134.053 206.938 133.444 206.195 132.567 206.195C131.69 206.195 131.081 206.938 131.081 208.278C131.081 209.618 131.69 210.373 132.567 210.373C133.444 210.373 134.053 209.593 134.053 208.278Z" fill="white"/>
<path d="M135.332 208.278C135.332 206.67 136.172 205.72 137.342 205.72C138.511 205.72 139.351 206.67 139.351 208.278C139.351 209.886 138.511 210.848 137.342 210.848C136.172 210.848 135.332 209.849 135.332 208.278ZM138.828 208.278C138.828 206.938 138.219 206.195 137.342 206.195C136.465 206.195 135.856 206.938 135.856 208.278C135.856 209.618 136.465 210.373 137.342 210.373C138.219 210.373 138.852 209.593 138.852 208.278H138.828Z" fill="white"/>
<path d="M141.483 205.72V210.775H140.959V206.183H139.741V205.72H141.483Z" fill="white"/>
<path d="M144.089 205.72V210.775H143.566V206.183H142.348V205.72H144.089Z" fill="white"/>
<path d="M145.283 208.278C145.283 206.67 146.136 205.72 147.305 205.72C148.474 205.72 149.315 206.67 149.315 208.278C149.315 209.886 148.474 210.848 147.305 210.848C146.136 210.848 145.283 209.849 145.283 208.278ZM148.791 208.278C148.791 206.938 148.182 206.195 147.305 206.195C146.428 206.195 145.819 206.938 145.819 208.278C145.819 209.618 146.416 210.373 147.305 210.373C148.194 210.373 148.791 209.593 148.791 208.278Z" fill="white"/>
<path d="M151.446 205.72V210.775H150.922V206.183H149.704V205.72H151.446Z" fill="white"/>
<path d="M152.652 208.278C152.652 206.67 153.492 205.72 154.662 205.72C155.831 205.72 156.683 206.67 156.683 208.278C156.683 209.886 155.831 210.848 154.662 210.848C153.492 210.848 152.652 209.849 152.652 208.278ZM156.148 208.278C156.148 206.938 155.539 206.195 154.662 206.195C153.785 206.195 153.176 206.938 153.176 208.278C153.176 209.618 153.785 210.373 154.662 210.373C155.539 210.373 156.148 209.593 156.148 208.278Z" fill="white"/>
<path d="M157.414 208.278C157.414 206.67 158.267 205.72 159.436 205.72C160.605 205.72 161.446 206.67 161.446 208.278C161.446 209.886 160.593 210.848 159.436 210.848C158.279 210.848 157.414 209.849 157.414 208.278ZM160.922 208.278C160.922 206.938 160.313 206.195 159.436 206.195C158.559 206.195 157.95 206.938 157.95 208.278C157.95 209.618 158.547 210.373 159.436 210.373C160.325 210.373 160.922 209.593 160.922 208.278Z" fill="white"/>
<path d="M163.577 205.72V210.775H163.054V206.183H161.836V205.72H163.577Z" fill="white"/>
<path d="M166.184 205.72V210.775H165.648V206.183H164.43V205.72H166.184Z" fill="white"/>
<path d="M168.778 205.72V210.775H168.267V206.183H167.049V205.72H168.778Z" fill="white"/>
<path d="M131.958 213.028V218.083H131.434V213.491H130.216V213.028H131.958Z" fill="white"/>
<path d="M134.552 213.028V218.083H134.041V213.491H132.823V213.028H134.552Z" fill="white"/>
<path d="M135.758 215.586C135.758 213.978 136.599 213.028 137.768 213.028C138.937 213.028 139.79 213.978 139.79 215.586C139.79 217.194 138.937 218.156 137.768 218.156C136.599 218.156 135.758 217.157 135.758 215.586ZM139.254 215.586C139.254 214.246 138.657 213.503 137.768 213.503C136.879 213.503 136.282 214.246 136.282 215.586C136.282 216.926 136.891 217.681 137.768 217.681C138.645 217.681 139.254 216.901 139.254 215.586Z" fill="white"/>
<path d="M140.533 215.586C140.533 213.978 141.373 213.028 142.543 213.028C143.712 213.028 144.564 213.978 144.564 215.586C144.564 217.194 143.712 218.156 142.543 218.156C141.373 218.156 140.533 217.157 140.533 215.586ZM144.029 215.586C144.029 214.246 143.419 213.503 142.543 213.503C141.666 213.503 141.057 214.246 141.057 215.586C141.057 216.926 141.666 217.681 142.543 217.681C143.419 217.681 144.029 216.901 144.029 215.586Z" fill="white"/>
<path d="M146.684 213.028V218.083H146.16V213.491H144.942V213.028H146.684Z" fill="white"/>
<path d="M149.29 213.028V218.083H148.766V213.491H147.548V213.028H149.29Z" fill="white"/>
<path d="M150.496 215.586C150.496 213.978 151.337 213.028 152.506 213.028C153.675 213.028 154.528 213.978 154.528 215.586C154.528 217.194 153.675 218.156 152.506 218.156C151.337 218.156 150.496 217.157 150.496 215.586ZM153.992 215.586C153.992 214.246 153.383 213.503 152.506 213.503C151.629 213.503 151.032 214.21 151.032 215.586C151.032 216.962 151.641 217.681 152.518 217.681C153.395 217.681 153.992 216.901 153.992 215.586Z" fill="white"/>
<path d="M155.258 215.586C155.258 213.978 156.111 213.028 157.28 213.028C158.45 213.028 159.29 213.978 159.29 215.586C159.29 217.194 158.45 218.156 157.28 218.156C156.111 218.156 155.258 217.157 155.258 215.586ZM158.766 215.586C158.766 214.246 158.157 213.503 157.28 213.503C156.403 213.503 155.794 214.246 155.794 215.586C155.794 216.926 156.391 217.681 157.28 217.681C158.169 217.681 158.766 216.901 158.766 215.586Z" fill="white"/>
<path d="M161.422 213.028V218.083H160.898V213.491H159.68V213.028H161.422Z" fill="white"/>
<path d="M162.627 215.586C162.627 213.978 163.468 213.028 164.637 213.028C165.806 213.028 166.659 213.978 166.659 215.586C166.659 217.194 165.806 218.156 164.637 218.156C163.468 218.156 162.627 217.157 162.627 215.586ZM166.123 215.586C166.123 214.246 165.514 213.503 164.637 213.503C163.76 213.503 163.212 214.21 163.212 215.586C163.212 216.962 163.821 217.681 164.698 217.681C165.575 217.681 166.123 216.901 166.123 215.586Z" fill="white"/>
<path d="M168.778 213.028V218.083H168.267V213.491H167.049V213.028H168.778Z" fill="white"/>
<path d="M92.8482 480.939L126.343 477.651V430.575H139.619V477.639L173.248 480.939C174.862 481.097 176.359 481.848 177.448 483.048C178.538 484.248 179.142 485.811 179.143 487.431V492.462H86.9652V487.431C86.9663 485.813 87.5689 484.252 88.656 483.052C89.7431 481.852 91.2372 481.1 92.8482 480.939Z" fill="#263238"/>
<path opacity="0.2" d="M92.8482 480.939L126.343 477.651V430.575H139.619V477.639L173.248 480.939C174.862 481.097 176.359 481.848 177.448 483.048C178.538 484.248 179.142 485.811 179.143 487.431V492.462H86.9652V487.431C86.9663 485.813 87.5689 484.252 88.656 483.052C89.7431 481.852 91.2372 481.1 92.8482 480.939Z" fill="white"/>
<path d="M175.599 507.394C180.395 507.394 184.283 503.506 184.283 498.71C184.283 493.914 180.395 490.026 175.599 490.026C170.803 490.026 166.915 493.914 166.915 498.71C166.915 503.506 170.803 507.394 175.599 507.394Z" fill="#263238"/>
<path d="M90.5095 507.394C95.3058 507.394 99.1939 503.506 99.1939 498.71C99.1939 493.914 95.3058 490.026 90.5095 490.026C85.7133 490.026 81.8252 493.914 81.8252 498.71C81.8252 503.506 85.7133 507.394 90.5095 507.394Z" fill="#263238"/>
<path d="M136.854 440.697H129.071C127.737 440.697 126.458 440.167 125.514 439.223C124.571 438.28 124.041 437.001 124.041 435.666V398.773H141.909L141.909 435.666C141.909 436.329 141.778 436.985 141.524 437.597C141.27 438.209 140.897 438.765 140.427 439.232C139.958 439.699 139.4 440.07 138.787 440.321C138.174 440.572 137.517 440.7 136.854 440.697Z" fill="#263238"/>
<path opacity="0.3" d="M136.854 440.697H129.071C127.737 440.697 126.458 440.167 125.514 439.223C124.571 438.28 124.041 437.001 124.041 435.666V398.773H141.909L141.909 435.666C141.909 436.329 141.778 436.985 141.524 437.597C141.27 438.209 140.897 438.765 140.427 439.232C139.958 439.699 139.4 440.07 138.787 440.321C138.174 440.572 137.517 440.7 136.854 440.697Z" fill="white"/>
<path d="M101.24 325.206C101.24 325.206 98.658 387.957 116.185 398.761H96.222C96.222 398.761 80.7777 377.373 85.1382 325.206H101.24Z" fill="#263238"/>
<path opacity="0.3" d="M101.24 325.206C101.24 325.206 98.658 387.957 116.185 398.761H96.222C96.222 398.761 80.7777 377.373 85.1382 325.206H101.24Z" fill="white"/>
<path d="M95.5277 389.979H172.773C174.388 389.979 175.937 390.621 177.08 391.763C178.222 392.905 178.863 394.454 178.863 396.069V403.572H89.4377V396.069C89.4377 394.454 90.0794 392.905 91.2215 391.763C92.3636 390.621 93.9126 389.979 95.5277 389.979Z" fill="#263238"/>
<path d="M180.154 396.776H88.1587C86.8067 396.776 85.7106 397.872 85.7106 399.224V401.124C85.7106 402.476 86.8067 403.572 88.1587 403.572H180.154C181.506 403.572 182.602 402.476 182.602 401.124V399.224C182.602 397.872 181.506 396.776 180.154 396.776Z" fill="#263238"/>
<path opacity="0.6" d="M180.154 396.776H88.1587C86.8067 396.776 85.7106 397.872 85.7106 399.224V401.124C85.7106 402.476 86.8067 403.572 88.1587 403.572H180.154C181.506 403.572 182.602 402.476 182.602 401.124V399.224C182.602 397.872 181.506 396.776 180.154 396.776Z" fill="white"/>
<path d="M81.0456 337.934H111.41C121.218 337.934 129.169 329.983 129.169 320.176V309.275C129.169 299.467 121.218 291.516 111.41 291.516H81.0456C71.2379 291.516 63.2872 299.467 63.2872 309.275V320.176C63.2872 329.983 71.2379 337.934 81.0456 337.934Z" fill="#263238"/>
<path d="M168.242 498.588L177.95 497.261L179.29 474.192L169.606 475.544L168.242 498.588Z" fill="#EBB376"/>
<path opacity="0.2" d="M169.606 475.544L179.29 474.204L178.522 487.395L168.851 488.235L169.606 475.544Z" fill="black"/>
<path d="M168.632 362.964L166.269 348.141L111.873 344.889C111.873 344.889 106.088 375.741 110.533 383.962C118.463 398.639 161.227 391.27 173.735 392.683C166.257 423.267 166.988 483.034 166.988 483.034L184.856 484.399C184.856 484.399 198.607 419.991 201.384 389.395C203.26 368.774 186.147 369.298 168.632 362.964Z" fill="#5228AB"/>
<path d="M164.893 483.911L186.366 485.324L188.205 476.128L164.613 475.032L164.893 483.911Z" fill="#5228AB"/>
<path d="M190.629 489.977L200.398 490.696L206.512 468.418L196.756 467.712L190.629 489.977Z" fill="#EBB376"/>
<path d="M201.75 491.134C201.75 491.134 201.75 491.134 201.75 491.207H201.823C202.595 491.635 203.412 491.978 204.259 492.23C204.871 492.462 205.547 492.462 206.159 492.23C206.36 492.115 206.524 491.945 206.632 491.74C206.739 491.536 206.787 491.304 206.768 491.073C206.78 490.928 206.756 490.782 206.699 490.649C206.642 490.515 206.552 490.397 206.439 490.306C205.563 489.955 204.591 489.929 203.698 490.233C204.4 489.765 204.91 489.06 205.136 488.247C205.153 488.057 205.104 487.865 204.998 487.706C204.891 487.546 204.734 487.428 204.551 487.371C204.397 487.295 204.229 487.256 204.058 487.256C203.887 487.256 203.718 487.295 203.564 487.371C202.346 488.028 201.92 490.757 201.884 490.903H201.713C201.703 490.942 201.701 490.982 201.707 491.022C201.713 491.062 201.728 491.1 201.75 491.134ZM202.48 490.586L202.261 490.659C202.493 489.758 202.98 488.284 203.698 487.906C203.776 487.859 203.862 487.828 203.953 487.815C204.043 487.802 204.134 487.809 204.222 487.833H204.32C204.624 487.955 204.673 488.138 204.648 488.272C204.624 488.966 203.406 490.062 202.48 490.586ZM202.48 491.098C203.771 490.708 205.562 490.355 206.134 490.769C206.189 490.811 206.233 490.867 206.26 490.931C206.288 490.995 206.299 491.065 206.293 491.134C206.302 491.281 206.272 491.427 206.206 491.557C206.139 491.688 206.039 491.799 205.915 491.877C205.367 492.182 204.112 491.889 202.517 491.098H202.48Z" fill="#5228AB"/>
<path opacity="0.2" d="M196.756 467.712L206.512 468.431L203.016 481.159L193.37 479.977L196.756 467.712Z" fill="black"/>
<path d="M209.825 479.588L192.627 474.533C192.627 474.533 202.894 416.58 213.333 396.483C212.553 396.228 211.518 395.899 210.239 395.521C207.937 394.827 204.88 393.962 201.287 392.963C176.293 386.033 125.637 373.037 125.637 373.037L148.779 351.442C148.779 351.442 240.957 365.497 242.869 389.784C243.758 401.465 209.825 479.588 209.825 479.588Z" fill="#5228AB"/>
<path d="M190.41 474.923L211.116 480.769L214.831 472.158L191.981 466.177L190.41 474.923Z" fill="#5228AB"/>
<path opacity="0.2" d="M210.215 395.521C207.913 394.827 204.855 393.962 201.262 392.963C201.981 387.068 201.993 380.308 199.155 376.861C193.516 369.992 179.009 365.899 170.751 364.499C163.845 363.281 140.642 360.845 140.642 360.845C140.642 360.845 170.751 357.958 201.542 366.935C216.804 371.393 213.783 386.264 210.215 395.521Z" fill="black"/>
<path opacity="0.2" d="M164.893 483.911L186.366 485.324L188.205 476.128L164.613 475.032L164.893 483.911Z" fill="white"/>
<path opacity="0.2" d="M190.41 474.923L211.116 480.769L214.831 472.158L191.981 466.177L190.41 474.923Z" fill="white"/>
<path d="M201.36 489.709L190.775 486.749C190.599 486.695 190.409 486.712 190.245 486.796C190.081 486.881 189.957 487.025 189.898 487.2L187.048 495.434C186.988 495.653 186.971 495.882 187 496.107C187.028 496.333 187.101 496.551 187.214 496.748C187.328 496.945 187.479 497.118 187.66 497.256C187.84 497.394 188.046 497.495 188.266 497.553C191.92 498.527 193.784 498.771 198.449 500.062C202.545 501.384 206.729 502.418 210.97 503.156C215.05 503.619 215.391 499.575 213.71 499.015C209.715 497.675 204.941 493.521 202.858 490.683C202.48 490.202 201.953 489.859 201.36 489.709Z" fill="#263238"/>
<path d="M178.912 497.285H179.119C179.119 497.285 179.338 497.358 179.363 497.382C179.387 497.407 179.363 497.382 179.363 497.443H179.448C180.276 497.701 181.13 497.868 181.994 497.943C182.639 498.062 183.305 497.931 183.857 497.577C184.022 497.426 184.142 497.233 184.205 497.018C184.267 496.803 184.269 496.575 184.21 496.359C184.192 496.214 184.137 496.076 184.052 495.957C183.967 495.838 183.854 495.742 183.723 495.677C182.787 495.521 181.826 495.698 181.007 496.177C181.585 495.573 181.926 494.782 181.969 493.948C181.932 493.75 181.831 493.57 181.681 493.436C181.532 493.301 181.342 493.22 181.141 493.205C180.952 493.172 180.759 493.177 180.573 493.221C180.386 493.265 180.211 493.347 180.057 493.461C179.034 494.337 178.839 497.114 178.839 497.273L178.912 497.285ZM179.972 496.725L179.765 496.834C179.706 495.772 179.997 494.72 180.593 493.838C180.659 493.775 180.738 493.728 180.824 493.698C180.91 493.669 181.002 493.658 181.092 493.668H181.202C181.519 493.728 181.604 493.887 181.616 494.021C181.397 495.085 180.816 496.041 179.972 496.725ZM180.106 497.2C181.324 496.554 182.956 495.836 183.589 496.128C183.654 496.157 183.71 496.202 183.751 496.26C183.791 496.318 183.816 496.386 183.821 496.457C183.859 496.597 183.86 496.745 183.823 496.886C183.787 497.027 183.715 497.156 183.614 497.261C183.114 497.687 181.835 497.663 180.106 497.2Z" fill="#5228AB"/>
<path d="M178.681 496.091L167.719 495.409C167.536 495.389 167.353 495.441 167.209 495.555C167.065 495.669 166.973 495.836 166.951 496.018L165.879 504.666C165.849 505.121 166 505.57 166.299 505.914C166.598 506.258 167.02 506.471 167.475 506.505C171.3 506.676 173.139 506.566 177.962 506.834C182.242 507.277 186.549 507.415 190.848 507.248C194.929 506.846 194.429 502.827 192.675 502.632C188.485 502.157 182.931 499.075 180.325 496.749C179.865 496.354 179.286 496.123 178.681 496.091Z" fill="#263238"/>
<path d="M190.812 307.63C190.812 307.63 193.881 324.268 199.411 327.471C204.941 330.675 243.186 307.825 243.186 307.825L239.983 301.37C239.983 301.37 207.961 310.018 207.657 310.066C207.352 310.115 206.439 302.758 206.439 302.758L190.812 307.63Z" fill="#263238"/>
<path d="M202.748 281.468C205.27 284.586 208.838 307.63 208.838 307.63L190.057 312.003L185.989 300.334L202.748 281.468Z" fill="#5228AB"/>
<path opacity="0.4" d="M202.748 281.468C205.27 284.586 208.838 307.63 208.838 307.63L190.057 312.003L185.989 300.334L202.748 281.468Z" fill="white"/>
<path d="M106.49 364.097L169.521 353.61C169.521 353.61 173.468 316.168 202.748 281.468C202.748 281.468 192.578 259.251 156.403 262.333C120.229 265.414 106.49 364.097 106.49 364.097Z" fill="#5228AB"/>
<path opacity="0.6" d="M106.49 364.097L169.521 353.61C169.521 353.61 173.468 316.168 202.748 281.468C202.748 281.468 192.578 259.251 156.403 262.333C120.229 265.414 106.49 364.097 106.49 364.097Z" fill="white"/>
<path d="M155.551 294.196C155.551 294.196 154.917 311.516 156.842 312.466C158.766 313.416 195.172 300.213 200.946 299.25C206.719 298.288 219.959 303.343 219.959 303.343L221.177 311.248C221.177 311.248 209.386 311.016 202.76 307.789C202.76 307.789 160.228 333.22 151.069 331.771C141.909 330.322 138.767 295.974 138.767 295.974L155.551 294.196Z" fill="#EBB376"/>
<path d="M155.551 300.334C155.551 300.334 155.685 310.517 157.804 311.296C159.923 312.076 191.421 300.98 191.421 300.98L196.403 312.514C196.403 312.514 156.598 338.202 148.9 331.881C141.203 325.559 139.266 302.917 139.266 302.917L155.551 300.334Z" fill="#263238"/>
<path d="M149.814 266.218C161.141 265 157.049 305.109 157.049 305.109L138.012 307.825C138.012 307.825 129.863 268.313 149.814 266.218Z" fill="#5228AB"/>
<path opacity="0.4" d="M149.814 266.218C161.141 265 157.049 305.109 157.049 305.109L138.012 307.825C138.012 307.825 129.863 268.313 149.814 266.218Z" fill="white"/>
<path d="M167.779 263.319C167.779 263.319 167.402 280.932 178.193 282.722C188.985 284.513 190.118 270.177 190.118 270.177C190.118 270.177 182.858 262.357 167.779 263.319Z" fill="#263238"/>
<path d="M194.88 273.063C193.008 272.403 190.967 272.403 189.095 273.063C188.665 274.896 187.634 276.533 186.166 277.712C184.698 278.89 182.877 279.544 180.995 279.568C180.067 279.615 179.138 279.574 178.218 279.446C168.791 278.155 169.826 264.135 169.826 264.135C173.263 264.372 176.69 263.547 179.643 261.773C182.149 260.305 184.336 258.35 186.074 256.024L194.88 273.063Z" fill="#EBB376"/>
<path opacity="0.2" d="M194.88 273.063C193.008 272.403 190.967 272.403 189.095 273.063C188.665 274.896 187.634 276.533 186.166 277.712C184.698 278.89 182.877 279.544 180.995 279.568C178.559 273.563 178.888 266.681 179.643 261.773C182.149 260.305 184.335 258.35 186.074 256.024L194.88 273.063Z" fill="black"/>
<path d="M202.188 245.841C197.986 248.691 199.898 253.515 209.399 261.078C213.26 256.072 213.893 246.353 210.836 243.917C207.779 241.481 205.842 243.369 202.188 245.841Z" fill="#263238"/>
<path d="M184.149 253.661C184.6 263.928 184.357 269.958 189.436 275.305C197.085 283.356 209.825 278.873 212.444 268.679C214.794 259.519 213.662 244.319 203.698 240.019C201.506 239.07 199.107 238.698 196.731 238.937C194.354 239.176 192.078 240.02 190.119 241.387C188.16 242.754 186.583 244.599 185.538 246.748C184.493 248.896 184.015 251.276 184.149 253.661Z" fill="#EBB376"/>
<path d="M199.411 256.742C199.411 257.57 199.837 258.253 200.373 258.265C200.909 258.277 201.372 257.607 201.384 256.779C201.396 255.951 200.97 255.256 200.434 255.244C199.898 255.232 199.484 255.914 199.411 256.742Z" fill="#263238"/>
<path d="M208.899 256.913C208.899 257.741 209.313 258.435 209.861 258.435C210.41 258.435 210.86 257.79 210.885 256.937C210.909 256.084 210.458 255.427 209.91 255.415C209.362 255.402 208.911 256.072 208.899 256.913Z" fill="#263238"/>
<path d="M205.842 257.254C206.791 259.822 208.094 262.245 209.715 264.452C209.136 264.848 208.478 265.113 207.786 265.231C207.095 265.349 206.386 265.316 205.708 265.134L205.842 257.254Z" fill="#D58745"/>
<path d="M213.15 251.407C213.105 251.486 213.039 251.552 212.959 251.597C212.88 251.642 212.79 251.664 212.699 251.663C212.085 251.608 211.467 251.699 210.895 251.93C210.323 252.161 209.814 252.524 209.411 252.991C209.372 253.042 209.324 253.085 209.269 253.118C209.214 253.15 209.153 253.172 209.09 253.181C209.027 253.19 208.962 253.186 208.9 253.17C208.838 253.155 208.78 253.127 208.729 253.088C208.677 253.052 208.633 253.006 208.599 252.952C208.566 252.898 208.543 252.839 208.533 252.776C208.523 252.714 208.525 252.65 208.54 252.589C208.555 252.527 208.582 252.469 208.619 252.418C209.119 251.821 209.755 251.352 210.473 251.051C211.192 250.75 211.972 250.626 212.748 250.689C212.812 250.69 212.874 250.705 212.932 250.731C212.99 250.757 213.042 250.794 213.085 250.841C213.128 250.887 213.161 250.942 213.183 251.002C213.205 251.061 213.214 251.125 213.211 251.188C213.21 251.265 213.189 251.341 213.15 251.407Z" fill="#263238"/>
<path d="M203.406 253.247C203.318 253.276 203.223 253.28 203.133 253.258C203.043 253.237 202.96 253.191 202.894 253.125C202.475 252.671 201.954 252.324 201.373 252.112C200.793 251.9 200.17 251.83 199.557 251.907C199.428 251.929 199.296 251.901 199.187 251.828C199.079 251.756 199.002 251.644 198.972 251.517C198.947 251.391 198.973 251.26 199.044 251.153C199.114 251.046 199.224 250.971 199.35 250.945C200.121 250.829 200.908 250.901 201.646 251.153C202.383 251.405 203.05 251.831 203.589 252.394C203.676 252.488 203.725 252.612 203.725 252.741C203.725 252.87 203.676 252.994 203.589 253.088L203.406 253.247Z" fill="#263238"/>
<path d="M188.388 244.647C193.15 246.377 192.481 251.529 185.112 261.176C180.154 257.266 177.146 247.997 179.533 244.891C181.92 241.785 184.223 243.149 188.388 244.647Z" fill="#263238"/>
<path d="M179.131 261.785C179.463 263.022 180.034 264.181 180.814 265.197C181.593 266.212 182.565 267.064 183.674 267.704C186.646 269.385 188.948 266.913 188.814 263.685C188.68 260.762 186.975 256.377 183.662 256.011C180.349 255.646 178.315 258.715 179.131 261.785Z" fill="#EBB376"/>
<path d="M197.962 266.839C197.962 266.839 199.74 270.201 204.709 270.043" stroke="#263238" stroke-width="0.526291" stroke-linecap="round" stroke-linejoin="round"/>
<path d="M189.484 248.216C189.484 248.216 193.528 248.423 195.392 250.981C195.892 250.318 196.241 249.554 196.416 248.742C196.59 247.93 196.586 247.09 196.402 246.28C196.402 246.28 201.274 246.876 203.455 250.262C204.062 249.028 204.315 247.649 204.186 246.28C205.11 247.404 205.629 248.807 205.659 250.262C205.659 250.262 209.386 247.9 208.899 245.683C209.824 246.812 210.5 248.124 210.885 249.532C210.885 249.532 213.321 248.691 212.797 244.355C213.614 245.253 214.211 246.329 214.539 247.498C214.539 247.498 217.73 238.448 205.659 233.393C193.589 228.338 179.728 234.331 179.972 244.355C180.215 254.379 189.484 248.216 189.484 248.216Z" fill="#263238"/>
<path d="M204.709 258.435C204.709 261.09 202.907 263.246 200.702 263.246C198.497 263.246 196.683 261.09 196.683 258.435C196.683 255.78 198.485 253.563 200.702 253.563C202.919 253.563 204.709 255.78 204.709 258.435Z" stroke="#263238" stroke-width="0.526291" stroke-linecap="round" stroke-linejoin="round"/>
<path d="M215.683 258.216C215.683 260.871 213.893 263.088 211.676 263.088C209.459 263.088 207.657 260.932 207.657 258.216C207.657 255.5 209.459 253.405 211.676 253.405C213.893 253.405 215.683 255.609 215.683 258.216Z" stroke="#263238" stroke-width="0.526291" stroke-linecap="round" stroke-linejoin="round"/>
<path d="M204.709 258.435C205.1 258.061 205.612 257.839 206.152 257.808C206.692 257.776 207.225 257.938 207.657 258.265" stroke="#263238" stroke-width="0.526291" stroke-linecap="round" stroke-linejoin="round"/>
<path d="M196.683 258.435L186.914 257.595" stroke="#263238" stroke-width="0.526291" stroke-linecap="round" stroke-linejoin="round"/>
<path d="M287.314 307.63V310.858C287.314 311.82 285.658 312.502 284.695 312.502H209.496C208.534 312.502 206.987 311.82 206.987 310.858V307.63H287.314Z" fill="#263238"/>
<path opacity="0.6" d="M287.314 307.63V310.858C287.314 311.82 285.658 312.502 284.695 312.502H209.496C208.534 312.502 206.987 311.82 206.987 310.858V307.63H287.314Z" fill="white"/>
<path opacity="0.2" d="M287.314 307.63V310.858C287.314 311.82 285.658 312.502 284.695 312.502H235.074C234.112 312.502 232.516 311.82 232.516 310.858V307.63H287.314Z" fill="black"/>
<path d="M299.384 268.07L290.432 308.836C290.273 309.501 289.904 310.097 289.38 310.536C288.856 310.975 288.204 311.233 287.521 311.272H238.57C238.257 311.242 237.954 311.143 237.684 310.982C237.414 310.821 237.182 310.603 237.006 310.342C236.831 310.081 236.715 309.785 236.667 309.474C236.619 309.163 236.641 308.845 236.73 308.544L245.683 268.204C245.865 267.587 246.254 267.052 246.784 266.689C247.314 266.325 247.953 266.155 248.594 266.206H297.533C298.848 266.218 299.628 266.742 299.384 268.07Z" fill="#263238"/>
<path opacity="0.6" d="M299.384 268.07L290.432 308.836C290.273 309.501 289.904 310.097 289.38 310.536C288.856 310.975 288.204 311.233 287.521 311.272H238.57C238.257 311.242 237.954 311.143 237.684 310.982C237.414 310.821 237.182 310.603 237.006 310.342C236.831 310.081 236.715 309.785 236.667 309.474C236.619 309.163 236.641 308.845 236.73 308.544L245.683 268.204C245.865 267.587 246.254 267.052 246.784 266.689C247.314 266.325 247.953 266.155 248.594 266.206H297.533C298.848 266.218 299.628 266.742 299.384 268.07Z" fill="white"/>
<path opacity="0.4" d="M299.384 268.07L290.432 308.836C290.273 309.501 289.905 310.097 289.38 310.536C288.856 310.975 288.204 311.233 287.521 311.272H240.238C239.924 311.244 239.62 311.146 239.349 310.986C239.077 310.826 238.844 310.607 238.667 310.346C238.49 310.085 238.373 309.788 238.324 309.476C238.276 309.165 238.297 308.846 238.387 308.544L247.351 268.204C247.534 267.587 247.923 267.052 248.453 266.689C248.983 266.325 249.622 266.155 250.263 266.206H297.533C298.849 266.218 299.628 266.742 299.384 268.07Z" fill="white"/>
<path opacity="0.2" d="M270.591 294.196C272.869 294.196 275.207 291.76 275.804 288.739C276.401 285.718 275.024 283.27 272.735 283.27C272.317 283.279 271.905 283.362 271.517 283.514C271.305 284.591 270.844 285.603 270.169 286.469C269.494 287.334 268.624 288.028 267.631 288.495C267.605 288.575 267.585 288.657 267.57 288.739C266.925 291.748 268.301 294.196 270.591 294.196Z" fill="black"/>
<path d="M330.492 279.007L341.893 290.408L345.754 312.502H322.307L323.269 310.066L336.119 307.63L337.24 294.196L328.726 292.174L330.492 279.007Z" fill="#263238"/>
<path opacity="0.6" d="M345.754 312.502H322.307L323.269 310.066L336.119 307.63L337.24 294.196L336.131 293.928L328.726 292.174L330.492 279.007L341.893 290.408L345.754 312.502Z" fill="white"/>
<path opacity="0.2" d="M340.309 288.824L336.131 293.928L328.726 292.174L330.492 279.007L340.309 288.824Z" fill="black"/>
<path d="M329.164 298.142H316.071C315.945 298.146 315.819 298.121 315.703 298.07C315.587 298.019 315.484 297.943 315.402 297.848C315.319 297.752 315.258 297.639 315.224 297.518C315.191 297.396 315.184 297.268 315.206 297.143L322.77 240.981C322.814 240.691 322.961 240.426 323.185 240.236C323.409 240.046 323.694 239.943 323.988 239.946H337.081C337.209 239.94 337.336 239.964 337.453 240.014C337.571 240.064 337.675 240.139 337.759 240.235C337.843 240.331 337.905 240.445 337.939 240.567C337.974 240.69 337.98 240.819 337.958 240.945L330.309 297.192C330.25 297.455 330.106 297.69 329.899 297.862C329.692 298.034 329.433 298.132 329.164 298.142Z" fill="#263238"/>
<path opacity="0.6" d="M329.164 298.142H316.071C315.945 298.146 315.819 298.121 315.703 298.07C315.587 298.019 315.484 297.943 315.402 297.848C315.319 297.752 315.258 297.639 315.224 297.518C315.191 297.396 315.184 297.268 315.206 297.143L322.77 240.981C322.814 240.691 322.961 240.426 323.185 240.236C323.409 240.046 323.694 239.943 323.988 239.946H337.081C337.209 239.94 337.336 239.964 337.453 240.014C337.571 240.064 337.675 240.139 337.759 240.235C337.843 240.331 337.905 240.445 337.939 240.567C337.974 240.69 337.98 240.819 337.958 240.945L330.309 297.192C330.25 297.455 330.106 297.69 329.899 297.862C329.692 298.034 329.433 298.132 329.164 298.142Z" fill="white"/>
<path opacity="0.4" d="M325.51 298.142H316.071C315.945 298.146 315.819 298.121 315.703 298.07C315.587 298.019 315.484 297.943 315.402 297.848C315.319 297.752 315.258 297.639 315.224 297.518C315.191 297.396 315.184 297.268 315.206 297.143L322.77 240.981C322.814 240.691 322.961 240.426 323.185 240.236C323.409 240.046 323.694 239.943 323.988 239.946H333.427C333.555 239.94 333.682 239.964 333.799 240.014C333.917 240.064 334.021 240.139 334.105 240.235C334.189 240.331 334.251 240.445 334.285 240.567C334.32 240.69 334.326 240.819 334.304 240.945L326.655 297.192C326.596 297.455 326.452 297.69 326.245 297.862C326.038 298.034 325.779 298.132 325.51 298.142Z" fill="white"/>
<path d="M326.071 296.376H316.022L323.415 241.749H333.464L326.071 296.376Z" fill="#5228AB"/>
<path d="M239.337 507.382H231.871L218.46 320.736H228.363L239.337 507.382Z" fill="#263238"/>
<path opacity="0.4" d="M239.337 507.382H231.871L219.118 330.005L218.46 321.028H228.363L228.899 330.005L239.337 507.382Z" fill="white"/>
<path opacity="0.2" d="M228.899 329.554H219.118L218.46 321.028H228.363L228.899 329.554Z" fill="black"/>
<path d="M294.098 507.382H286.632L285.414 320.736H295.316L294.098 507.382Z" fill="#263238"/>
<path opacity="0.5" d="M295.316 321.028L295.121 351.149L294.098 507.382H286.632L285.609 351.149L285.414 321.028H295.316Z" fill="white"/>
<path opacity="0.2" d="M295.316 321.028L295.121 351.478H285.609L285.414 321.028H295.316Z" fill="black"/>
<path d="M373.317 507.382H365.851L352.44 320.736H362.343L373.317 507.382Z" fill="#263238"/>
<path opacity="0.5" d="M373.317 507.382H365.851L353.098 330.005L352.44 321.028H362.343L362.879 330.005L373.317 507.382Z" fill="white"/>
<path opacity="0.2" d="M362.879 329.554H353.098L352.44 321.028H362.343L362.879 329.554Z" fill="black"/>
<path d="M153.98 507.382H146.513L157.475 320.736H167.378L153.98 507.382Z" fill="#263238"/>
<path opacity="0.5" d="M167.378 321.028L166.72 330.005L153.967 507.382H146.513L156.939 330.005L157.475 321.028H167.378Z" fill="white"/>
<path opacity="0.2" d="M157.475 321.028H167.377L166.72 329.554H156.939L157.475 321.028Z" fill="black"/>
<path d="M149.631 316.059H370.187V322.77C370.187 323.468 369.909 324.137 369.416 324.63C368.923 325.124 368.254 325.401 367.556 325.401H152.25C151.552 325.401 150.883 325.124 150.39 324.63C149.896 324.137 149.619 323.468 149.619 322.77V316.059H149.631Z" fill="#5228AB"/>
<path opacity="0.2" d="M370.187 316.059H149.631V320.736H370.187V316.059Z" fill="black"/>
<path d="M374.815 317.277H145.015C144.316 317.277 143.646 317 143.15 316.507C142.655 316.014 142.375 315.345 142.372 314.646C142.372 313.945 142.65 313.273 143.146 312.777C143.642 312.281 144.314 312.003 145.015 312.003H374.815C375.514 312.006 376.183 312.286 376.676 312.781C377.169 313.277 377.446 313.947 377.446 314.646C377.446 314.991 377.378 315.334 377.246 315.653C377.113 315.972 376.92 316.262 376.675 316.506C376.431 316.751 376.141 316.944 375.822 317.077C375.503 317.209 375.161 317.277 374.815 317.277Z" fill="#5228AB"/>
</svg>
