<svg width="196" height="215" viewBox="0 0 196 215" fill="none" xmlns="http://www.w3.org/2000/svg">
<path d="M138.652 121.373C133.024 115.744 126.029 111.675 118.354 109.568C110.678 107.461 102.587 107.387 94.874 109.353C107.942 118.257 123.362 123.073 139.174 123.19" fill="#32EB71"/>
<path d="M123.802 68.791C125.627 55.8868 120.586 41.3746 110.938 32C110.624 44.7836 116.019 59.1672 123.802 68.791Z" fill="#32EB71"/>
<path d="M131.528 93.1603C124.552 79.9084 113.445 69.2925 99.8909 62.9218C102.009 70.3493 106.068 77.0783 111.65 82.4169C117.232 87.7555 124.135 91.5109 131.649 93.297" fill="#32EB71"/>
<path d="M133.128 97.8556C125.338 98.0808 117.45 97.8074 109.917 95.8135C102.383 93.8196 95.1795 89.9845 90.1465 84.0188C105.41 84.066 120.319 88.6164 133.008 97.0999" fill="#32EB71"/>
<path d="M129.173 82.3706C133.128 67.5448 139.625 57.2938 151.307 48.9885C152.2 56.2774 150.46 63.6455 146.402 69.7657C142.344 75.886 136.234 80.356 129.173 82.3706Z" fill="#32EB71"/>
<path d="M158.583 107.938C158.612 103.613 157.363 99.3762 154.991 95.7598C152.619 92.1434 149.231 89.3089 145.253 87.6127C145.904 95.2668 151.918 104.119 158.583 107.938Z" fill="#32EB71"/>
<path d="M162.305 95.4356C162.849 89.2295 165.153 83.3076 168.947 78.3667C172.742 73.4257 177.868 69.6712 183.724 67.5448C181.031 79.9345 173.875 90.2498 162.305 95.4356Z" fill="#32EB71"/>
<path d="M156.694 117.618C159.443 113.686 163.93 111.242 168.569 110.028C173.208 108.814 178.056 108.702 182.848 108.605C179.583 112.148 175.59 114.942 171.144 116.796C166.697 118.651 161.902 119.521 157.088 119.347" fill="#32EB71"/>
<path d="M151.13 149.207C159.874 146.509 169.312 147.186 177.582 151.105C185.851 155.024 192.351 161.9 195.8 170.376C179.6 167.337 163.56 160.101 151.13 149.207Z" fill="#32EB71"/>
<path d="M133.321 138.232C136.015 146.2 135.492 155.832 129.502 162.698C128.309 158.589 128.032 154.268 128.692 150.041C129.352 145.813 130.932 141.782 133.321 138.232Z" fill="#32EB71"/>
<path d="M122.789 133.803C122.355 138.939 120.603 143.877 117.703 148.138C114.803 152.4 110.853 155.842 106.235 158.132C106.02 158.269 105.779 158.361 105.528 158.402C105.276 158.444 105.019 158.434 104.771 158.373C104.04 158.075 103.967 157.078 104.064 156.29C105.238 146.088 112.803 136.19 122.789 133.778" fill="#32EB71"/>
<path d="M115.915 132.765C113.627 135.237 110.857 137.212 107.775 138.568C104.693 139.925 101.365 140.633 97.9975 140.651C94.6302 140.668 91.2952 139.994 88.1993 138.669C85.1034 137.344 82.3126 135.398 80 132.95C91.4168 131.704 104.586 130.868 115.915 132.765Z" fill="#32EB71"/>
<path d="M114.202 41.5033C114.202 41.5033 114.202 41.6239 114.307 41.8409L114.66 42.8057C114.982 43.6741 115.464 44.9122 116.035 46.5041C116.606 48.0961 117.362 50.0739 118.182 52.3653L119.501 56.0315L120.908 60.1561C122.934 65.9368 125.177 72.8753 127.605 80.6018C130.033 88.3282 132.485 96.8828 134.945 105.904C137.406 114.925 139.52 123.592 141.377 131.455C143.235 139.318 144.69 146.482 145.791 152.512C146.075 154.018 146.343 155.449 146.595 156.805C146.847 158.161 147.064 159.439 147.247 160.64C147.657 163.052 148.01 165.102 148.252 166.799C148.493 168.495 148.71 169.781 148.847 170.698C148.922 171.121 148.978 171.459 149.015 171.711C149.03 171.828 149.054 171.944 149.088 172.057C149.098 171.939 149.098 171.821 149.088 171.703C149.088 171.454 149.015 171.116 148.959 170.69C148.838 169.773 148.67 168.455 148.445 166.774C148.219 165.094 147.906 163.004 147.512 160.6C147.319 159.402 147.11 158.115 146.893 156.757C146.676 155.398 146.386 153.959 146.089 152.455C145.019 146.417 143.524 139.278 141.763 131.366C140.003 123.455 137.792 114.82 135.38 105.783C132.968 96.7461 130.411 88.2237 128.007 80.5053C125.603 72.7869 123.279 65.8484 121.221 60.0837C120.685 58.6365 120.2 57.2617 119.766 55.9592L118.407 52.301C117.603 50.0176 116.799 48.0559 116.196 46.4639C115.593 44.872 115.079 43.658 114.741 42.7977C114.572 42.3957 114.443 42.0821 114.355 41.849C114.313 41.7299 114.262 41.6143 114.202 41.5033Z" fill="#263238"/>
<path d="M176.914 74.1617C176.914 74.1617 176.842 74.218 176.713 74.3467L176.167 74.9175C175.692 75.424 175.001 76.1878 174.14 77.1928C171.692 80.0108 169.446 82.9984 167.419 86.1333C164.393 90.7987 162.028 95.8612 160.392 101.176C158.503 107.158 157.337 113.96 156.171 121.075C153.856 135.306 151.001 148.057 148.935 157.255C147.898 161.846 147.054 165.569 146.459 168.173C146.177 169.436 145.96 170.433 145.808 171.14C145.735 171.462 145.687 171.719 145.647 171.944C145.633 172.032 145.633 172.122 145.647 172.21C145.647 172.21 145.647 172.121 145.727 171.952C145.808 171.783 145.848 171.502 145.928 171.188L146.668 168.238C147.287 165.633 148.179 161.926 149.273 157.344C151.411 148.138 154.314 135.394 156.637 121.164C157.803 114.048 158.953 107.262 160.802 101.305C162.413 96.0188 164.737 90.977 167.708 86.3182C169.712 83.174 171.914 80.1609 174.301 77.2974C175.105 76.2843 175.813 75.5044 176.263 74.9818L176.778 74.3788L176.914 74.1617Z" fill="#263238"/>
<path d="M112.506 132.283C112.638 132.327 112.776 132.352 112.916 132.355L114.098 132.492L114.95 132.572L115.963 132.725C116.686 132.83 117.515 132.942 118.375 133.135L119.798 133.425L121.317 133.802C122.371 134.044 123.464 134.43 124.63 134.783C127.124 135.66 129.544 136.735 131.866 137.999C134.165 139.289 136.335 140.797 138.346 142.502C139.219 143.259 140.048 144.064 140.831 144.914C141.53 145.631 142.187 146.388 142.8 147.181C143.32 147.825 143.806 148.496 144.256 149.191C144.624 149.704 144.957 150.241 145.253 150.799L145.856 151.82C146 152.053 146.081 152.174 146.097 152.166C146.064 152.032 146.01 151.904 145.936 151.788L145.397 150.719C145.124 150.16 144.81 149.622 144.457 149.111C144.026 148.397 143.553 147.71 143.042 147.052C142.443 146.235 141.793 145.456 141.096 144.721C140.311 143.873 139.482 143.068 138.611 142.309C136.606 140.519 134.424 138.938 132.099 137.589C129.757 136.31 127.309 135.234 124.783 134.373C123.609 134.036 122.507 133.658 121.438 133.433L119.902 133.071L118.495 132.838C117.587 132.653 116.751 132.564 116.019 132.484L115.006 132.363L114.146 132.323L112.956 132.275C112.806 132.255 112.654 132.258 112.506 132.283Z" fill="#263238"/>
<path d="M109.25 74.4351C109.489 74.7303 109.758 74.9997 110.054 75.2391L112.425 77.2893C114.419 78.9938 117.201 81.3093 120.28 83.8901C123.36 86.471 126.182 88.7142 128.224 90.3865L130.636 92.3241C130.927 92.5707 131.239 92.7913 131.569 92.9834C131.327 92.69 131.058 92.4207 130.765 92.1794L128.417 90.1533C126.423 88.4488 123.649 86.1333 120.562 83.5605C117.474 80.9877 114.668 78.7365 112.626 77.0642L110.214 75.1265C109.918 74.8624 109.595 74.6306 109.25 74.4351Z" fill="#263238"/>
<path d="M106.436 89.5342C106.436 89.6548 112.401 91.5201 119.822 93.715C127.243 95.9099 133.305 97.5983 133.337 97.4858C133.37 97.3732 127.38 95.4919 119.951 93.297C112.522 91.102 106.484 89.4217 106.436 89.5342Z" fill="#263238"/>
<path d="M128.578 83.5203C128.816 83.2581 129.024 82.9695 129.197 82.66L130.805 80.248C132.139 78.2219 134.021 75.424 136.296 72.5055C138.571 69.587 140.718 66.9981 142.31 65.165L144.207 63.0022C144.459 62.7597 144.683 62.4901 144.875 62.1982C144.581 62.4035 144.312 62.6408 144.071 62.9057C143.58 63.3881 142.897 64.0957 142.069 64.9881C140.404 66.765 138.193 69.3136 135.934 72.2643C133.675 75.215 131.802 78.029 130.523 80.1033C129.888 81.1405 129.39 81.9927 129.06 82.5877C128.871 82.883 128.709 83.1952 128.578 83.5203Z" fill="#263238"/>
<path d="M149.393 91.906C149.813 92.7067 150.283 93.4801 150.8 94.2216C151.701 95.6286 152.915 97.5823 154.169 99.7933C155.423 102.004 156.493 104.046 157.24 105.542C157.611 106.373 158.035 107.179 158.511 107.954C158.265 107.082 157.934 106.236 157.522 105.429C156.838 103.902 155.817 101.827 154.547 99.6003C153.277 97.3732 152.022 95.4356 151.058 94.0688C150.573 93.2962 150.016 92.5719 149.393 91.906Z" fill="#263238"/>
<path d="M156.517 118.028C156.517 118.084 157.69 117.53 159.564 116.685C161.437 115.841 164.05 114.74 167.001 113.71C169.951 112.681 172.685 111.902 174.679 111.395C176.673 110.888 177.895 110.591 177.895 110.551C177.595 110.538 177.294 110.568 177.003 110.639C176.432 110.728 175.612 110.88 174.591 111.097C169.338 112.247 164.243 114.029 159.419 116.404C158.494 116.862 157.755 117.256 157.256 117.546C156.99 117.674 156.742 117.836 156.517 118.028Z" fill="#263238"/>
<path d="M150.913 149.255C150.913 149.255 151.033 149.32 151.283 149.384L152.36 149.657L156.38 150.582C160.775 151.502 165.12 152.648 169.397 154.015C173.655 155.438 177.732 157.354 181.545 159.723C183 160.648 184.134 161.468 184.898 162.055C185.282 162.376 185.685 162.674 186.104 162.947C186.104 162.947 186.015 162.835 185.831 162.658C185.646 162.481 185.372 162.224 185.027 161.918C183.978 161.039 182.88 160.221 181.738 159.466C177.947 157.002 173.856 155.033 169.566 153.605C165.273 152.225 160.899 151.113 156.468 150.276L152.448 149.472C151.942 149.368 151.429 149.295 150.913 149.255Z" fill="#263238"/>
<path d="M130.636 156.958C130.756 156.958 131.44 152.769 132.244 147.567C133.048 142.365 133.53 138.128 133.41 138.112C133.289 138.096 132.606 142.301 131.802 147.503C130.998 152.705 130.555 156.942 130.636 156.958Z" fill="#263238"/>
<path d="M109.523 149.296C110.207 148.585 110.844 147.831 111.428 147.036C112.57 145.613 114.146 143.659 115.939 141.529C117.732 139.398 119.38 137.509 120.586 136.142C121.277 135.428 121.921 134.671 122.516 133.875C122.289 134.021 122.084 134.197 121.905 134.397C121.535 134.743 121.02 135.274 120.385 135.933C119.123 137.252 117.426 139.149 115.633 141.247C113.84 143.346 112.297 145.372 111.219 146.875C110.673 147.615 110.247 148.218 109.965 148.636C109.789 148.835 109.64 149.057 109.523 149.296Z" fill="#263238"/>
<path d="M165.393 168.873V179.301H162.78L153.51 208.566H132.952L123.971 179.59L120.49 179.301V168.873H165.393Z" fill="#515B60"/>
<g opacity="0.3">
<path d="M165.393 168.873V179.301H162.78L153.51 208.566H132.952L123.971 179.59L120.49 179.301V168.873H165.393Z" fill="black"/>
</g>
<path d="M122.226 179.59C122.226 179.711 131.311 179.807 142.503 179.807C153.695 179.807 162.78 179.711 162.78 179.59C162.78 179.47 153.703 179.373 142.503 179.373C131.303 179.373 122.226 179.47 122.226 179.59Z" fill="#263238"/>
<path d="M107.44 112.496C107.869 112.652 108.31 112.77 108.759 112.85L112.369 113.727C115.408 114.474 119.605 115.616 124.115 117.144C128.626 118.671 132.67 120.279 135.548 121.517L138.949 123.005C139.356 123.209 139.778 123.381 140.211 123.519C139.835 123.263 139.437 123.04 139.022 122.852C138.218 122.45 137.1 121.895 135.669 121.244C131.945 119.548 128.137 118.043 124.26 116.734C120.38 115.428 116.435 114.325 112.441 113.429C110.906 113.091 109.659 112.842 108.791 112.697C108.348 112.59 107.896 112.523 107.44 112.496Z" fill="#263238"/>
<path d="M129.052 195.839C129.052 195.96 135.428 196.056 143.283 196.056C151.138 196.056 157.506 195.96 157.506 195.839C157.506 195.719 151.138 195.622 143.283 195.622C135.428 195.622 129.052 195.719 129.052 195.839Z" fill="#FAFAFA"/>
<path d="M128.256 193.419C128.256 193.54 135.01 193.636 143.331 193.636C151.653 193.636 158.406 193.54 158.406 193.419C158.406 193.298 151.661 193.202 143.331 193.202C135.002 193.202 128.256 193.298 128.256 193.419Z" fill="#FAFAFA"/>
<path d="M91.3299 145.242L107.522 129.234L78.6428 79.7803C75.6374 76.3411 71.8328 73.6933 67.5637 72.0699L57.3931 68.2027L32.1073 63.5636L14.162 70.6629C11.9539 71.5314 10.0959 73.1071 8.87831 75.1436C7.66075 77.1802 7.15235 79.5628 7.43254 81.9189L12.1279 121.444L14.8937 172.9L80.1222 161.579L73.5615 142.549L73.7786 112.865L91.3299 145.242Z" fill="#5228AB"/>
<path d="M74.1564 141.27C74.3091 141.27 74.3494 130.987 74.2448 118.308C74.1403 105.629 73.9393 95.3457 73.7866 95.3457C73.6338 95.3457 73.5936 105.629 73.6981 118.308C73.8026 130.987 74.0036 141.27 74.1564 141.27Z" fill="#263238"/>
<path d="M71.7685 148.812L32.3725 132.949C30.8135 132.321 29.4607 131.27 28.4664 129.915C27.4721 128.56 26.8758 126.954 26.7445 125.279L23.8662 87.4906C23.8662 87.4906 24.2039 71.4106 14.17 70.6066L8.45354 72.8498C1.06478 76.8054 -0.760299 87.5469 0.260781 95.8442C1.68386 107.631 2.27882 124.314 3.87878 134.549C5.1893 142.918 10.2143 149.535 18.1739 152.438L66.7194 162.946L71.7685 148.812Z" fill="#5228AB"/>
<path d="M24.4209 93.2553C24.4807 93.539 24.5211 93.8264 24.5415 94.1156C24.6058 94.7347 24.6942 95.5628 24.7988 96.608C24.9998 98.819 25.2812 101.939 25.6028 105.774C25.9244 109.609 26.3264 114.264 26.7686 119.369C26.8731 120.648 26.9857 121.958 27.0982 123.301C27.1769 124.651 27.3461 125.994 27.6047 127.321C27.8772 128.673 28.5593 129.908 29.5585 130.858C30.6416 131.804 31.8718 132.568 33.2006 133.118C44.0626 137.821 54.1046 141.704 61.3406 144.43L69.9756 147.646L72.3232 148.506C72.6012 148.593 72.8704 148.706 73.1272 148.844C72.8542 148.785 72.5855 148.707 72.3232 148.611L69.9112 147.807C67.8449 147.123 64.8701 146.094 61.2119 144.784C53.9036 142.139 43.8697 138.352 32.9674 133.6C31.5878 133.023 30.3115 132.224 29.1886 131.236C28.1129 130.216 27.3797 128.887 27.0902 127.433C26.829 126.074 26.6624 124.699 26.5917 123.317C26.4791 121.977 26.3746 120.666 26.2781 119.385C25.8761 114.272 25.5224 109.665 25.2169 105.774C24.9113 101.882 24.7184 98.819 24.5495 96.6C24.4852 95.5548 24.437 94.7186 24.3968 94.0995C24.3863 93.8179 24.3944 93.5359 24.4209 93.2553Z" fill="#263238"/>
<path d="M1.8687 113.797C1.92447 113.96 1.95168 114.132 1.94911 114.304C1.94911 114.698 2.02951 115.18 2.07775 115.759C2.19835 117.11 2.35914 118.919 2.54406 121.122C2.72898 123.325 3.03451 126.075 3.42847 129.049C3.81745 132.276 4.41364 135.475 5.21335 138.625C5.58057 140.246 6.23106 141.789 7.13489 143.184C8.00573 144.475 8.99056 145.686 10.0775 146.802C11.9191 148.702 14.0491 150.301 16.3889 151.537C18.5662 152.644 20.9011 153.409 23.3114 153.805C23.1404 153.824 22.9678 153.824 22.7968 153.805C22.3053 153.777 21.8164 153.715 21.3335 153.62C19.5417 153.281 17.8067 152.691 16.1799 151.867C13.7784 150.655 11.5898 149.061 9.69966 147.147C8.57996 146.019 7.56791 144.789 6.67663 143.473C5.73423 142.033 5.05376 140.438 4.66663 138.762C3.86447 135.589 3.27886 132.366 2.91389 129.114C2.55209 126.123 2.31089 123.421 2.10989 121.154C1.90889 118.887 1.86066 117.046 1.81242 115.775C1.81242 115.188 1.81242 114.706 1.81242 114.304C1.81029 114.133 1.8292 113.963 1.8687 113.797Z" fill="#263238"/>
<path d="M18.6965 140.241C18.7952 139.499 19.0383 138.783 19.4121 138.135C20.2209 136.521 21.3447 135.085 22.7173 133.913C24.0899 132.741 25.6834 131.855 27.4039 131.309C28.1014 131.042 28.8442 130.913 29.5907 130.931C29.5907 131.019 28.7867 131.18 27.5325 131.662C25.9058 132.293 24.3951 133.19 23.0622 134.316C21.7365 135.459 20.6138 136.818 19.7417 138.336C19.0664 139.477 18.7528 140.265 18.6965 140.241Z" fill="#263238"/>
<g opacity="0.3">
<path d="M60.4401 144.309C56.2271 141.897 52.1026 140.096 47.6967 138.094C43.2908 136.092 38.9733 133.52 36.095 129.636C30.6519 122.304 31.271 111.723 25.7073 104.487L26.7927 119.08C27.1304 123.542 26.447 127.924 29.3173 130.979C31.7293 133.528 36.4568 135.489 39.7693 136.607C46.4827 138.818 53.7106 142.106 60.416 144.325" fill="black"/>
</g>
<path opacity="0.3" d="M73.7866 98.1275L77.1956 119.16L73.9715 113.203L73.7866 98.1275Z" fill="black"/>
<path d="M23.231 85.1349C22.9327 85.1995 22.6271 85.2238 22.3224 85.2073L19.83 85.2716C17.7316 85.3279 14.8372 85.4324 11.6453 85.6575C8.45343 85.8826 5.57512 86.1962 3.48472 86.4615L1.01643 86.7509C0.716547 86.803 0.412146 86.8246 0.10791 86.8153C0.39051 86.6986 0.688313 86.6228 0.992315 86.5901C1.5712 86.4695 2.40736 86.3248 3.40432 86.164C5.48668 85.8424 8.37304 85.4887 11.573 85.2555C14.7729 85.0223 17.6834 84.9661 19.7898 84.9902C20.8431 84.9902 21.6953 85.0304 22.2822 85.0625C22.6002 85.0522 22.9183 85.0765 23.231 85.1349Z" fill="#455A64"/>
<path d="M24.3809 105.283C24.3809 105.396 19.2192 105.918 12.8435 106.441C6.46775 106.963 1.27392 107.309 1.26588 107.189C1.25784 107.068 6.41952 106.553 12.8033 106.023C19.187 105.492 24.3809 105.163 24.3809 105.283Z" fill="#455A64"/>
<path d="M26.254 126.436C26.0037 126.62 25.7341 126.777 25.45 126.903C24.9113 127.184 24.1234 127.554 23.1184 127.972C17.9016 130.154 12.3416 131.4 6.69272 131.654C5.60732 131.703 4.73096 131.703 4.12796 131.654C3.81524 131.672 3.50161 131.647 3.19531 131.582C3.50238 131.521 3.81488 131.491 4.12796 131.494C4.73096 131.494 5.59929 131.421 6.67665 131.333C9.46123 131.137 12.2285 130.745 14.9578 130.159C17.6921 129.548 20.379 128.742 22.9978 127.747C24.0028 127.361 24.8149 127.039 25.4098 126.806C25.6761 126.651 25.9594 126.527 26.254 126.436Z" fill="#455A64"/>
<path d="M40.2678 137.29C38.843 138.173 37.5309 139.226 36.3603 140.426C35.2934 141.718 34.3789 143.129 33.6348 144.631C33.6877 144.128 33.835 143.64 34.0689 143.192C35.0657 140.947 36.7566 139.081 38.8929 137.869C39.3074 137.585 39.7751 137.389 40.2678 137.29Z" fill="#455A64"/>
<path d="M54.5227 151.216C55.1483 148.298 56.6126 145.626 58.7357 143.529C58.8321 143.61 57.594 145.137 56.4362 147.268C55.2785 149.399 54.6433 151.256 54.5227 151.216Z" fill="#455A64"/>
<path d="M32.0588 73.3161C30.2333 73.8563 28.3712 74.2648 26.4871 74.5382C24.6331 74.9422 22.7521 75.2109 20.8591 75.3422C22.6832 74.7962 24.5457 74.3877 26.4308 74.1201C28.2849 73.7161 30.1658 73.4473 32.0588 73.3161Z" fill="#455A64"/>
<path d="M69.7906 75.0367C67.2017 74.939 64.6198 74.7028 62.0561 74.3291C59.478 74.0951 56.9147 73.7193 54.3779 73.2036C56.9666 73.306 59.5482 73.5422 62.1124 73.9111C64.69 74.1499 67.253 74.5256 69.7906 75.0367Z" fill="#455A64"/>
<path d="M73.0068 92.5799C72.8442 92.6042 72.6789 92.6042 72.5164 92.5799H71.1013H65.8995C61.5096 92.5799 55.4474 92.5799 48.7501 92.7809C42.0528 92.9819 35.9987 93.2312 31.6088 93.4643L26.415 93.7377L25.008 93.794C24.8428 93.8187 24.6748 93.8187 24.5095 93.794C24.6705 93.7549 24.8346 93.7307 24.9999 93.7216L26.4069 93.5769C27.629 93.4643 29.3978 93.3276 31.5928 93.1749C35.9746 92.8694 42.0447 92.5478 48.7421 92.3709C55.4394 92.194 61.5096 92.2101 65.9075 92.2905C68.1024 92.3307 69.8792 92.3789 71.1013 92.4352L72.5164 92.4995C72.682 92.5108 72.8462 92.5377 73.0068 92.5799Z" fill="#455A64"/>
<path d="M73.473 114.811C73.473 114.923 63.1416 115.695 50.3821 116.539C37.6226 117.383 27.2671 117.962 27.259 117.85C27.251 117.737 37.5904 116.957 50.3499 116.121C63.1094 115.285 73.4649 114.69 73.473 114.811Z" fill="#455A64"/>
<path d="M72.3715 134.388C72.0954 134.54 71.8045 134.664 71.5032 134.758C70.9323 134.975 70.1042 135.256 69.0912 135.562C67.0249 136.237 64.1386 137.081 60.9145 137.861C57.6905 138.641 54.7398 139.196 52.5931 139.525C51.5158 139.702 50.6474 139.823 50.0444 139.887C49.731 139.94 49.4133 139.961 49.0957 139.952C49.3946 139.843 49.7047 139.767 50.0203 139.726L52.5368 139.236C54.6674 138.826 57.602 138.223 60.818 137.451C64.034 136.679 66.9204 135.883 69.0028 135.28L71.471 134.565C71.7628 134.469 72.0652 134.41 72.3715 134.388Z" fill="#455A64"/>
<path d="M88.9099 98.8994C86.4476 99.7531 83.9408 100.472 81.4005 101.054C78.8955 101.773 76.354 102.359 73.7866 102.807C76.2497 101.956 78.7564 101.236 81.296 100.652C83.8 99.9291 86.3418 99.344 88.9099 98.8994Z" fill="#455A64"/>
<path d="M81.0227 83.8726C79.9536 84.2775 78.8381 84.5476 77.7022 84.6766C76.5864 84.9484 75.4416 85.0834 74.2932 85.0786C75.367 84.6798 76.4843 84.4099 77.6217 84.2746C78.7348 84.003 79.8769 83.868 81.0227 83.8726Z" fill="#455A64"/>
<path d="M24.5417 88.5358C24.4613 88.5358 24.3326 87.2012 23.601 85.1831C22.6516 82.5452 21.0635 80.1836 18.9787 78.3092C16.8939 76.4348 14.3772 75.1061 11.6536 74.4417C9.56316 73.9271 8.2044 73.9512 8.21244 73.8708C8.52541 73.8147 8.84455 73.8012 9.16115 73.8306C10.0214 73.8656 10.8769 73.9759 11.7179 74.1603C14.5245 74.7551 17.1253 76.0779 19.2591 77.9958C21.3929 79.9136 22.9846 82.3591 23.8743 85.0866C24.1506 85.9024 24.3498 86.7422 24.4693 87.5951C24.5363 87.9039 24.5607 88.2204 24.5417 88.5358Z" fill="#263238"/>
<path d="M71.4951 77.8185C72.1003 80.2391 72.5648 82.6927 72.8861 85.1671C73.3526 87.62 73.6774 90.0977 73.8589 92.588C73.263 90.163 72.8014 87.7071 72.476 85.2314C72.0102 82.7808 71.6827 80.3059 71.4951 77.8185Z" fill="#263238"/>
<path d="M115.426 196.32C115.426 196.32 145.72 204.698 146.934 205.164C148.76 205.807 148.454 212.489 145.616 212.4C144.273 212.352 122.348 213.204 119.574 213.043C116.801 212.882 108.447 209.578 108.447 209.578L115.426 196.32Z" fill="#5228AB"/>
<path d="M128.049 207.874C128.201 207.874 128.402 206.266 129.383 204.658C130.364 203.05 131.618 201.988 131.522 201.868C131.425 201.747 129.962 202.607 128.941 204.4C127.92 206.193 127.92 207.89 128.049 207.874Z" fill="#263238"/>
<path d="M124.881 206.442C125.025 206.442 125.331 205.035 126.143 203.452C126.955 201.868 127.904 200.766 127.751 200.662C126.813 201.292 126.08 202.184 125.644 203.226C124.881 204.931 124.76 206.434 124.881 206.442Z" fill="#263238"/>
<path d="M121.922 205.655C122.075 205.655 121.922 204.127 122.63 202.439C123.337 200.75 124.39 199.721 124.286 199.608C124.181 199.496 122.863 200.412 122.163 202.262C121.464 204.111 121.802 205.735 121.922 205.655Z" fill="#263238"/>
<path d="M122.469 201.715C122.738 200.994 122.851 200.224 122.798 199.456C122.788 198.624 122.683 197.795 122.485 196.987C122.372 196.507 122.221 196.037 122.035 195.58C121.943 195.295 121.776 195.04 121.552 194.841C121.401 194.725 121.215 194.666 121.025 194.675C120.835 194.684 120.654 194.76 120.515 194.889C120.278 195.116 120.132 195.422 120.105 195.749C120.089 196.017 120.089 196.285 120.105 196.553C120.107 197.055 120.169 197.554 120.29 198.041C120.494 198.851 120.808 199.63 121.222 200.356C121.56 201.042 122.021 201.661 122.581 202.181C122.654 202.133 122.147 201.425 121.536 200.187C121.182 199.471 120.912 198.715 120.732 197.936C120.638 197.481 120.589 197.018 120.587 196.553C120.587 196.087 120.587 195.508 120.869 195.283C120.923 195.231 120.995 195.202 121.07 195.202C121.145 195.202 121.217 195.231 121.271 195.283C121.425 195.428 121.539 195.611 121.6 195.814C121.783 196.248 121.936 196.694 122.059 197.148C122.271 197.921 122.406 198.713 122.461 199.512C122.517 200.911 122.38 201.715 122.469 201.715Z" fill="#263238"/>
<path d="M122.469 201.434C121.85 201.172 121.177 201.062 120.507 201.112C119.783 201.112 119.062 201.201 118.36 201.377C117.928 201.471 117.511 201.625 117.122 201.836C116.874 201.961 116.673 202.164 116.55 202.413C116.427 202.662 116.388 202.945 116.439 203.218C116.507 203.48 116.644 203.718 116.837 203.908C117.029 204.098 117.27 204.232 117.532 204.296C117.978 204.408 118.445 204.408 118.891 204.296C119.608 204.111 120.278 203.779 120.861 203.323C121.409 202.947 121.886 202.476 122.268 201.932C121.706 202.256 121.168 202.622 120.66 203.025C120.098 203.41 119.467 203.683 118.802 203.829C118.433 203.922 118.046 203.922 117.677 203.829C117.502 203.785 117.342 203.695 117.212 203.57C117.082 203.444 116.988 203.287 116.937 203.114C116.91 202.942 116.939 202.766 117.02 202.613C117.102 202.459 117.23 202.336 117.387 202.262C117.736 202.075 118.106 201.932 118.489 201.836C119.156 201.649 119.84 201.531 120.531 201.482C121.665 201.393 122.412 201.514 122.469 201.434Z" fill="#263238"/>
<path d="M132.704 208.203C132.848 208.203 132.704 206.893 133.299 205.47C133.894 204.046 134.907 203.21 134.778 203.098C134.649 202.985 133.468 203.693 132.832 205.277C132.197 206.86 132.575 208.251 132.704 208.203Z" fill="#263238"/>
<path d="M111.567 209.602C111.935 209.825 112.326 210.008 112.732 210.149C113.832 210.575 114.961 210.925 116.109 211.194C119.905 212.025 123.787 212.392 127.671 212.288C132.213 212.239 136.306 212.038 139.273 211.918L142.778 211.733C143.21 211.728 143.641 211.683 144.064 211.596C143.637 211.527 143.202 211.505 142.77 211.532H139.256L127.671 211.757C123.819 211.852 119.968 211.54 116.182 210.824C113.287 210.253 111.599 209.506 111.567 209.602Z" fill="#263238"/>
<path d="M110.666 210.294C110.666 210.358 111.534 209.875 112.933 209.264C114.716 208.413 116.703 208.082 118.666 208.308C120.596 208.726 122.337 209.762 123.626 211.258C124.166 211.893 124.749 212.489 125.371 213.043C124.969 212.301 124.469 211.617 123.884 211.009C123.29 210.311 122.618 209.682 121.882 209.136C120.957 208.45 119.882 207.996 118.746 207.809C116.701 207.571 114.631 207.969 112.821 208.951C112.035 209.28 111.307 209.733 110.666 210.294Z" fill="#263238"/>
<path d="M79.5754 189.285C79.5754 189.285 50.9128 208.05 49.8757 208.83C48.332 209.996 50.1008 215.552 52.7781 214.587C54.0404 214.137 78.0961 207.439 80.6849 206.434C83.2738 205.429 90.2364 199.753 90.2364 199.753L79.5754 189.285Z" fill="#5228AB"/>
<path d="M71.0609 204.127C71.1815 204.127 70.675 202.447 69.1393 201.064C67.6037 199.681 65.9233 199.303 65.9233 199.456C65.9233 199.608 67.3866 200.147 68.8097 201.458C70.2328 202.768 70.9242 204.199 71.0609 204.127Z" fill="#263238"/>
<path d="M73.6339 201.803C73.7545 201.763 73.1997 200.316 71.8892 198.989C70.5787 197.663 69.1556 197.06 69.1073 197.18C69.0591 197.301 70.2892 198.065 71.5193 199.343C72.7495 200.621 73.4972 201.876 73.6339 201.803Z" fill="#263238"/>
<path d="M76.2145 200.147C76.3431 200.147 76.2145 198.539 74.9603 196.995C73.706 195.452 72.1624 194.993 72.1383 195.122C72.1141 195.251 73.4407 195.926 74.5503 197.317C75.6598 198.708 76.0698 200.187 76.2145 200.147Z" fill="#263238"/>
<path d="M74.5181 196.585C74.5905 196.585 74.1965 195.781 73.8669 194.439C73.6788 193.661 73.5658 192.866 73.5292 192.067C73.5015 191.596 73.5015 191.123 73.5292 190.652C73.5297 190.441 73.5822 190.234 73.682 190.049C73.7245 189.987 73.7886 189.944 73.8616 189.928C73.9346 189.911 74.0112 189.923 74.0759 189.96C74.4056 190.089 74.5744 190.644 74.7272 191.086C74.8692 191.528 74.9635 191.983 75.0085 192.445C75.0826 193.249 75.0583 194.059 74.9362 194.857C74.7352 196.215 74.4699 197.044 74.5503 197.068C74.929 196.405 75.1799 195.677 75.29 194.921C75.4653 194.103 75.5275 193.264 75.4749 192.429C75.4402 191.929 75.3485 191.436 75.2015 190.957C75.1241 190.702 75.0301 190.452 74.9201 190.21C74.7971 189.908 74.5684 189.663 74.2769 189.518C74.1051 189.436 73.9098 189.418 73.7258 189.467C73.5418 189.515 73.3809 189.627 73.2719 189.783C73.1196 190.042 73.0365 190.336 73.0307 190.636C72.9985 191.128 72.9985 191.622 73.0307 192.115C73.0872 192.934 73.241 193.744 73.489 194.527C73.6759 195.281 74.0273 195.984 74.5181 196.585Z" fill="#263238"/>
<path d="M74.4539 196.28C74.4941 196.352 75.1613 196.015 76.3191 195.733C76.9914 195.571 77.6782 195.477 78.3693 195.452C78.7648 195.427 79.1617 195.452 79.5512 195.524C79.7215 195.548 79.8798 195.625 80.0028 195.745C80.1257 195.865 80.207 196.022 80.2346 196.191C80.2407 196.373 80.1995 196.553 80.1149 196.714C80.0303 196.874 79.9053 197.01 79.7522 197.108C79.4287 197.309 79.0622 197.43 78.6829 197.462C78.0062 197.524 77.3238 197.456 76.6729 197.261C76.0617 197.034 75.4359 196.848 74.7996 196.706C75.3272 197.113 75.9274 197.416 76.5683 197.598C77.2575 197.861 77.9949 197.974 78.7311 197.928C79.192 197.898 79.6388 197.758 80.0336 197.518C80.2625 197.374 80.4488 197.171 80.5732 196.931C80.6976 196.691 80.7555 196.421 80.7411 196.151C80.7078 195.875 80.5854 195.617 80.3924 195.417C80.1995 195.217 79.9465 195.085 79.6718 195.042C79.2367 194.964 78.7933 194.945 78.3532 194.985C77.6292 195.032 76.9136 195.167 76.2226 195.387C75.5727 195.546 74.9677 195.851 74.4539 196.28Z" fill="#263238"/>
<path d="M56.4281 213.542C56.4281 213.59 56.9105 213.252 57.1356 212.432C57.3654 211.364 57.1723 210.249 56.597 209.321C56.3141 208.819 55.9914 208.34 55.6322 207.89C55.3582 207.498 55.0307 207.146 54.6593 206.844C54.3972 206.63 54.079 206.496 53.7428 206.458C53.5096 206.458 53.381 206.507 53.389 206.539C53.7759 206.652 54.1328 206.85 54.4342 207.118C54.7351 207.44 55.0044 207.79 55.2382 208.163C55.5622 208.614 55.8627 209.08 56.1387 209.562C56.6493 210.4 56.8697 211.384 56.7658 212.36C56.6748 212.76 56.562 213.154 56.4281 213.542Z" fill="#263238"/>
<path d="M66.7195 205.855C66.8562 205.855 66.816 204.408 65.7145 203.106C64.613 201.803 63.198 201.498 63.19 201.626C63.1819 201.755 64.3477 202.238 65.3206 203.435C66.2934 204.633 66.5748 205.88 66.7195 205.855Z" fill="#263238"/>
<path d="M87.2858 200.766C86.8414 201.02 86.4192 201.31 86.0235 201.634C84.8888 202.422 83.7104 203.144 82.494 203.797C80.6746 204.753 78.7946 205.588 76.866 206.298C74.6952 207.102 72.259 207.865 69.6862 208.613C64.5245 210.101 59.8533 211.459 56.4845 212.472L52.4645 213.694C51.9699 213.821 51.4882 213.993 51.0254 214.209C51.5319 214.139 52.0319 214.029 52.5208 213.879L56.5408 212.818C59.9337 211.894 64.5808 210.591 69.7747 209.104C72.3555 208.356 74.7997 207.576 77.0107 206.732C78.9482 205.997 80.8292 205.121 82.6387 204.111C83.8563 203.426 85.0201 202.649 86.12 201.787C86.5434 201.489 86.9342 201.147 87.2858 200.766Z" fill="#263238"/>
<path d="M88.347 201.152C87.5827 200.81 86.7683 200.593 85.935 200.509C83.9003 200.125 81.7965 200.38 79.9131 201.241C78.8886 201.765 78.0038 202.525 77.3322 203.46C76.7938 204.21 76.3433 205.019 75.9895 205.872C75.6134 206.635 75.343 207.447 75.1855 208.284C75.6098 207.568 75.9832 206.824 76.3031 206.057C76.9865 204.722 78.0639 202.768 80.1302 201.739C81.9368 200.941 83.9305 200.662 85.8868 200.935C87.3983 201.023 88.3309 201.233 88.347 201.152Z" fill="#263238"/>
<path d="M139.168 142.348C139.168 142.348 147.763 145.435 147.803 155.083C147.867 173.575 110.481 193.916 110.481 193.916L60.7216 160.952L57.6021 159.69C57.6021 159.69 124.768 134.428 139.168 142.348Z" fill="#263238"/>
<path d="M85.927 177.595C86.3858 177.345 86.8193 177.052 87.2214 176.719C88.0254 176.132 89.1993 175.247 90.6304 174.146C93.4766 171.951 97.3519 168.823 101.525 165.245C105.697 161.668 109.364 158.307 111.977 155.823C113.279 154.584 114.324 153.563 115.032 152.848C115.421 152.498 115.776 152.113 116.093 151.698C115.667 152 115.267 152.336 114.895 152.703L111.735 155.557C109.066 157.969 105.36 161.29 101.195 164.86C97.0302 168.429 93.2032 171.597 90.4133 173.872L87.0928 176.542C86.676 176.86 86.2861 177.212 85.927 177.595Z" fill="#455A64"/>
<path d="M125.122 149.246C123.502 148.992 121.845 149.144 120.298 149.688C117.701 150.444 115.956 151.827 116.037 151.923C116.117 152.02 117.934 150.902 120.443 150.17C122.951 149.439 125.122 149.407 125.122 149.246Z" fill="#455A64"/>
<path d="M120.861 146.335C119.675 146.754 118.647 147.529 117.918 148.554C116.592 150.162 116.238 151.891 116.366 151.907C116.495 151.923 117.058 150.412 118.312 148.876C119.566 147.34 120.909 146.472 120.861 146.335Z" fill="#455A64"/>
<path d="M141.901 204.826C141.901 204.77 141.306 204.65 140.615 205.212C139.809 205.973 139.302 206.997 139.184 208.099C139.011 209.192 139.168 210.311 139.634 211.315C139.988 212.07 140.374 212.432 140.438 212.392C140.502 212.352 140.237 211.926 139.988 211.186C139.666 210.227 139.569 209.206 139.707 208.203C139.819 207.208 140.228 206.27 140.88 205.51C141.387 204.931 141.909 204.931 141.901 204.826Z" fill="#263238"/>
<path d="M135.606 116.113L121.456 154.279C121.061 155.343 120.347 156.258 119.411 156.9C118.476 157.542 117.364 157.879 116.23 157.865L38.3062 156.836V150.918L67.2502 151.971L79.5192 113.91C79.7229 113.284 80.1196 112.738 80.6526 112.351C81.1855 111.964 81.8273 111.755 82.486 111.755L132.752 111.9C133.251 111.909 133.74 112.038 134.179 112.275C134.618 112.513 134.993 112.853 135.272 113.266C135.552 113.679 135.729 114.153 135.787 114.649C135.845 115.144 135.783 115.646 135.606 116.113Z" fill="#E0E0E0"/>
<path d="M135.606 116.113C135.606 116.113 135.606 116.113 135.606 115.992C135.649 115.878 135.681 115.759 135.703 115.639C135.819 115.166 135.819 114.672 135.703 114.2C135.54 113.573 135.184 113.015 134.684 112.605C134.184 112.194 133.567 111.953 132.921 111.916C132.39 111.916 131.803 111.916 131.192 111.916H110.224H95.5348H87.2777H82.9442C82.2217 111.845 81.4951 112.005 80.8699 112.374C80.248 112.765 79.7884 113.368 79.5755 114.071L67.3386 152.068V152.156H67.2421L38.2981 151.111L38.4267 150.983V156.9L38.3061 156.779L87.3019 157.431L108.6 157.728L113.512 157.792H115.924C116.692 157.838 117.461 157.726 118.184 157.463C118.886 157.207 119.526 156.807 120.065 156.29C120.604 155.772 121.028 155.147 121.311 154.456C121.826 153.073 122.332 151.714 122.831 150.396C126.778 139.807 129.97 131.252 132.173 125.335C133.283 122.392 134.135 120.101 134.722 118.541C135.309 116.981 135.622 116.185 135.622 116.185C135.622 116.185 135.341 116.989 134.77 118.597L132.245 125.335C130.059 131.26 126.899 139.807 122.975 150.42L121.464 154.496C121.172 155.209 120.736 155.854 120.182 156.389C119.629 156.925 118.97 157.34 118.248 157.607C117.5 157.882 116.704 158.002 115.908 157.961H113.496L108.592 157.897L87.2938 157.632L38.29 156.996H38.1694V150.822H38.2981L67.2421 151.883L67.1215 151.971L79.3905 113.982C79.6154 113.231 80.1073 112.588 80.7734 112.173C81.4332 111.786 82.1987 111.617 82.9603 111.691H87.2938H95.5509L110.24 111.755L131.208 111.852C131.819 111.852 132.398 111.852 132.945 111.852C133.604 111.895 134.233 112.147 134.74 112.57C135.247 112.993 135.607 113.567 135.767 114.208C135.886 114.683 135.886 115.18 135.767 115.655C135.727 115.812 135.673 115.965 135.606 116.113Z" fill="#263238"/>
<path d="M101.058 130.529C101.661 130.224 102.339 130.099 103.011 130.171C103.683 130.242 104.32 130.506 104.845 130.931C105.289 131.354 105.596 131.899 105.728 132.498C105.86 133.097 105.81 133.721 105.585 134.291C105.341 134.853 104.945 135.336 104.443 135.687C103.94 136.038 103.35 136.242 102.739 136.277C102.09 136.32 101.444 136.148 100.901 135.79C100.359 135.431 99.9478 134.905 99.7317 134.291C99.3699 133.045 99.7318 131.188 101.058 130.529Z" fill="white"/>
<path d="M118.867 195.966C118.867 195.966 48.6454 150.991 45.55 149.222C42.9129 147.718 35.8538 143.377 28.8992 145.298C21.9446 147.22 15.7055 153.475 12.586 162.568C10.8092 167.778 9.96495 176.662 9.57099 183.327C9.03967 191.309 11.6348 199.183 16.807 205.285C19.0957 208.13 22.1296 210.285 25.5706 211.508C26.3023 211.733 27.066 211.926 27.8459 212.095C41.136 214.981 54.796 209.015 62.2652 197.623L63.8732 195.13C63.8732 195.13 109.862 212.014 110.578 211.781L118.867 195.966Z" fill="#263238"/>
<path d="M49.1761 151.714C49.1761 151.714 49.1118 151.714 48.9992 151.61L48.5088 151.272C48.0746 150.974 47.4395 150.54 46.6114 150.002C44.2727 148.466 41.7702 147.196 39.1502 146.215C37.3414 145.55 35.4456 145.152 33.5222 145.033C31.3288 144.941 29.1398 145.3 27.0902 146.086C24.8156 146.965 22.7143 148.238 20.8833 149.849C19.9033 150.688 18.9819 151.593 18.1256 152.558C17.2597 153.552 16.4948 154.629 15.8423 155.774C14.5502 158.057 13.5354 160.487 12.8192 163.01C12.1519 165.463 11.6213 167.883 11.1228 170.166C10.1951 174.211 9.65666 178.336 9.51478 182.483C9.46458 185.281 9.67722 188.078 10.1499 190.837C10.3027 191.818 10.4796 192.565 10.5841 193.08L10.6967 193.667C10.7073 193.733 10.7073 193.801 10.6967 193.868C10.669 193.806 10.6474 193.741 10.6323 193.675C10.6323 193.522 10.5358 193.329 10.4796 193.096C10.3429 192.589 10.1419 191.85 9.96502 190.869C9.41504 188.108 9.14567 185.298 9.16102 182.483C9.26868 178.318 9.78845 174.173 10.7127 170.11C11.2112 167.81 11.7258 165.406 12.385 162.922C13.115 160.366 14.1431 157.905 15.4483 155.589C16.1148 154.414 16.8958 153.307 17.7799 152.285C18.6503 151.304 19.5878 150.386 20.5859 149.535C22.4566 147.902 24.6015 146.611 26.9214 145.724C29.0316 144.924 31.2843 144.569 33.5383 144.679C35.486 144.823 37.4029 145.245 39.2306 145.933C41.8632 146.941 44.3654 148.261 46.6837 149.865C47.4877 150.428 48.1228 150.886 48.5409 151.208L49.0073 151.577C49.0702 151.614 49.1272 151.66 49.1761 151.714Z" fill="#455A64"/>
<path d="M31.8982 183.271C32.0234 183.337 32.1522 183.396 32.2841 183.448L33.4338 183.898L37.888 185.635L54.4504 191.874C61.4854 194.495 69.9194 197.623 79.3744 201.064C88.8294 204.505 99.3055 208.3 110.497 212.062L110.706 212.127L110.803 211.942C112.555 208.581 114.413 205.043 116.294 201.45L119.092 196.087L119.205 195.878L119.004 195.757L65.3848 161.716L49.3048 151.553L44.931 148.82L43.7894 148.128C43.6621 148.046 43.5306 147.971 43.3954 147.903C43.3954 147.903 43.516 148 43.7652 148.169L44.8828 148.908L49.2083 151.714L65.232 162.005L118.762 196.183L118.674 195.854C117.79 197.55 116.841 199.367 115.876 201.2L110.393 211.693L110.69 211.564C99.5065 207.785 89.0224 204.03 79.5593 200.621L54.6353 191.544L38.0166 185.45L33.5303 183.842L32.3645 183.432L31.8982 183.271Z" fill="#455A64"/>
<path d="M35.5322 34.0568C34.2154 31.692 33.169 29.1865 32.4127 26.5876C31.6579 23.9677 31.8052 21.1703 32.8308 18.6441C33.482 17.2049 34.5111 15.9427 35.0257 14.4472C35.7251 12.389 35.4357 9.9609 36.7141 8.20014C38.7 5.44242 42.9612 6.08562 46.0405 4.64646C48.4525 3.52086 50.1168 1.10082 52.6333 0.288783C54.8362 -0.418737 57.2402 0.288788 59.3628 1.17319C61.4853 2.05759 63.5677 3.23946 65.8591 3.53694C67.506 3.62943 69.1568 3.62943 70.8037 3.53694C72.4734 3.46741 74.1058 4.04321 75.3623 5.14494C76.5201 6.31074 76.7613 8.4735 75.5071 9.54282C78.3935 9.05238 81.1351 11.9548 81.0708 14.8573C81.0064 17.7597 78.8276 20.3566 76.1663 21.5787C73.5051 22.8008 70.474 22.8731 67.5555 22.64C59.2984 21.9968 51.0012 18.8612 45.3812 12.7829" fill="#5228AB"/>
<path d="M37.309 23.7254L31.681 64.6088C31.4535 66.2562 31.5633 67.9327 32.0037 69.5363C32.4441 71.14 33.2059 72.6374 34.2429 73.9375C35.2798 75.2377 36.5703 76.3135 38.0358 77.0995C39.5014 77.8855 41.1115 78.3654 42.7682 78.5099C45.9094 78.7826 49.0352 77.837 51.4986 75.869C53.9619 73.901 55.5744 71.0612 56.0021 67.9373C56.4201 64.858 56.8061 62.3093 56.8061 61.9797C56.8061 61.9797 67.3465 62.4299 69.5173 52.2352C70.5625 47.3067 71.9293 36.9592 72.9906 27.6248C73.555 22.7879 72.2813 17.9156 69.4221 13.9737C66.5629 10.0318 62.3268 7.3082 57.5538 6.34289L56.5649 6.14993C45.8074 4.63037 38.515 12.9276 37.309 23.7254Z" fill="#FFBE9D"/>
<path d="M56.9027 61.8189C52.1667 60.9674 47.7903 58.7288 44.3281 55.3869C44.3281 55.3869 46.0085 63.3787 56.3881 64.4962L56.9027 61.8189Z" fill="#EB996E"/>
<path d="M68.4561 36.316C68.3837 36.6976 68.1648 37.0358 67.8463 37.2581C67.5277 37.4805 67.1349 37.5694 66.7517 37.5059C66.5641 37.4832 66.383 37.4233 66.2188 37.3298C66.0547 37.2363 65.9108 37.1111 65.7955 36.9614C65.6803 36.8118 65.596 36.6406 65.5476 36.458C65.4991 36.2754 65.4875 36.085 65.5135 35.8979C65.5841 35.5164 65.8011 35.1777 66.118 34.9539C66.435 34.7301 66.8268 34.639 67.2099 34.7C67.399 34.7217 67.5817 34.7811 67.7473 34.8747C67.913 34.9682 68.0582 35.0941 68.1744 35.2447C68.2906 35.3954 68.3754 35.5678 68.4238 35.7518C68.4722 35.9358 68.4832 36.1277 68.4561 36.316Z" fill="#263238"/>
<path d="M69.839 32.1995C69.6219 32.3523 68.6813 31.3151 67.1054 31.0096C65.5296 30.7041 64.2271 31.2508 64.0985 31.0096C64.0341 30.9051 64.2834 30.5996 64.9025 30.3342C65.6616 30.0049 66.504 29.9178 67.3145 30.085C68.1335 30.244 68.8801 30.661 69.445 31.2749C69.8551 31.7573 69.9515 32.1352 69.839 32.1995Z" fill="#263238"/>
<path d="M53.8073 33.7834C53.7348 34.1651 53.5159 34.5032 53.1974 34.7256C52.8789 34.9479 52.486 35.0369 52.1028 34.9733C51.9148 34.9516 51.7331 34.8924 51.5684 34.7993C51.4037 34.7061 51.2594 34.5809 51.144 34.4309C51.0285 34.281 50.9443 34.1095 50.8963 33.9264C50.8484 33.7434 50.8376 33.5526 50.8646 33.3653C50.9352 32.9843 51.1525 32.6463 51.4697 32.4238C51.7869 32.2012 52.1788 32.1121 52.5611 32.1754C52.7493 32.1972 52.9313 32.2564 53.0964 32.3494C53.2615 32.4425 53.4063 32.5676 53.5223 32.7173C53.6384 32.8671 53.7234 33.0386 53.7724 33.2216C53.8213 33.4047 53.8331 33.5957 53.8073 33.7834Z" fill="#263238"/>
<path d="M54.3459 29.4097C54.1207 29.5624 53.18 28.5253 51.6042 28.2117C50.0283 27.8981 48.7259 28.4609 48.5972 28.2117C48.5329 28.1072 48.7822 27.8017 49.4012 27.5363C50.1604 27.207 51.0027 27.1199 51.8132 27.2871C52.6301 27.4471 53.3757 27.8607 53.9439 28.469C54.3539 28.9675 54.4504 29.3373 54.3459 29.4097Z" fill="#263238"/>
<path d="M57.7146 42.2013C58.5947 42.1037 59.4838 42.1199 60.3597 42.2495C60.7698 42.2897 61.1638 42.2495 61.2844 42.0244C61.4126 41.6189 61.4126 41.1837 61.2844 40.7782C61.1075 39.733 60.9145 38.6396 60.7135 37.4899C59.9095 32.8106 59.4593 28.9996 59.6442 28.9675C59.8291 28.9353 60.617 32.7061 61.3969 37.3853C61.5738 38.5351 61.7507 39.6285 61.9195 40.6817C62.07 41.2139 62.0331 41.7816 61.815 42.2897C61.7251 42.4227 61.6059 42.5332 61.4665 42.6127C61.327 42.6922 61.1712 42.7385 61.011 42.748C60.7767 42.7627 60.5415 42.7465 60.3115 42.6998C59.4283 42.6442 58.5556 42.4767 57.7146 42.2013Z" fill="#263238"/>
<path d="M52.8744 42.3621C53.1317 42.3621 52.794 44.1068 54.0161 45.5781C55.2381 47.0494 57.0874 47.2585 57.0472 47.4997C57.0472 47.6122 56.5809 47.7489 55.809 47.6202C54.8061 47.4313 53.9012 46.8964 53.2523 46.1087C52.6479 45.3477 52.36 44.3831 52.4483 43.4153C52.5206 42.7158 52.7618 42.3299 52.8744 42.3621Z" fill="#263238"/>
<path d="M55.9779 23.3314C55.7367 23.7254 54.2091 23.2108 52.3197 23.0661C50.4303 22.9214 48.8464 23.1224 48.6776 22.6962C48.6052 22.4872 48.943 22.1415 49.6264 21.844C50.5309 21.5023 51.5009 21.3689 52.4642 21.4538C53.4275 21.5387 54.3592 21.8397 55.19 22.3344C55.8091 22.7364 56.0824 23.1465 55.9779 23.3314Z" fill="#5228AB"/>
<path d="M70.2089 27.5363C69.8551 27.8418 68.8501 27.2549 67.5557 26.9735C66.2612 26.6921 65.1436 26.7323 64.9185 26.3142C64.8462 26.1052 65.0874 25.7836 65.6421 25.5102C66.3693 25.2351 67.1618 25.1823 67.919 25.3584C68.6762 25.5344 69.3641 25.9315 69.8953 26.4992C70.2491 26.9896 70.3295 27.3916 70.2089 27.5363Z" fill="#5228AB"/>
<path d="M36.6337 31.4599C36.4729 31.3473 30.0249 27.9785 28.851 35.0135C27.6772 42.0485 34.9855 41.7752 35.0257 41.5742C35.0659 41.3732 36.6337 31.4599 36.6337 31.4599Z" fill="#FFBE9D"/>
<path d="M33.3213 38.5511C33.3213 38.5511 33.1846 38.6155 32.9675 38.6717C32.6543 38.7503 32.3228 38.7042 32.0429 38.5431C31.3434 38.1411 30.9173 36.8627 31.0942 35.5844C31.1789 34.9791 31.3957 34.4 31.7293 33.8879C31.8316 33.6776 31.9828 33.4948 32.1702 33.3549C32.3577 33.215 32.5759 33.1221 32.8067 33.0839C32.9539 33.0708 33.101 33.1094 33.2228 33.193C33.3446 33.2766 33.4335 33.4001 33.474 33.5422C33.5383 33.7593 33.474 33.8879 33.474 33.904C33.474 33.9201 33.6429 33.8156 33.6348 33.5181C33.6252 33.3366 33.5543 33.1637 33.4338 33.0277C33.2636 32.8488 33.0294 32.7447 32.7826 32.7382C32.4841 32.7468 32.1928 32.832 31.9366 32.9854C31.6803 33.1388 31.4678 33.3555 31.3193 33.6146C30.9185 34.1733 30.6617 34.8223 30.5716 35.504C30.3786 36.9271 30.8851 38.3743 31.8499 38.8406C32.031 38.9258 32.2287 38.9701 32.4288 38.9701C32.629 38.9701 32.8266 38.9258 33.0077 38.8406C33.2811 38.72 33.3454 38.5672 33.3213 38.5511Z" fill="#EB996E"/>
<path d="M75.0327 18.1295C73.8267 20.7265 67.6198 21.7315 63.0692 20.3566C58.8803 19.0943 57.3527 16.4331 54.6915 14.1095C53.0031 12.6382 53.0031 12.6382 50.2454 12.3568C48.0183 12.1237 46.2254 14.3427 44.545 15.814C45.4857 21.442 43.0014 26.9414 40.5733 32.0629C40.3691 32.6612 39.9699 33.1737 39.4396 33.5181C38.4909 33.9844 37.3492 33.2447 36.7784 32.3443C35.9774 30.8293 35.6339 29.1143 35.7895 27.4077C35.8119 23.5166 36.6072 19.6686 38.1291 16.0874C39.6545 12.4802 42.2109 9.40364 45.4777 7.24338C49.6634 4.68458 54.6803 3.85421 59.4673 4.92787C64.2264 6.0293 68.5169 8.60359 71.7283 12.2845C73.2967 13.9135 74.4327 15.909 75.0327 18.0893" fill="#5228AB"/>
<path d="M60.7536 35.1261C60.818 35.1261 60.7537 34.5231 61.0753 33.5181C61.4863 32.0712 62.3621 30.7997 63.5676 29.9001C64.4499 29.2476 65.4804 28.8245 66.5665 28.6687C67.6527 28.513 68.7605 28.6294 69.7906 29.0077C71.0063 29.4532 72.0616 30.2509 72.8217 31.299C73.6415 32.4173 74.0834 33.7677 74.0834 35.1542C74.0834 36.5408 73.6415 37.8912 72.8217 39.0094C72.0616 40.0575 71.0063 40.8553 69.7906 41.3008C68.7601 41.6794 67.6516 41.7953 66.5652 41.6381C65.4787 41.4808 64.4485 41.0555 63.5676 40.4003C62.3614 39.5049 61.4851 38.2357 61.0753 36.7904C60.7939 35.7612 60.818 35.1824 60.7536 35.1824C60.7347 35.3292 60.7347 35.4778 60.7536 35.6246C60.7509 36.0443 60.7995 36.4628 60.8983 36.8708C61.2378 38.4136 62.1086 39.7881 63.3586 40.7541C64.0998 41.3203 64.9467 41.7326 65.8496 41.9666C66.7525 42.2007 67.6932 42.2518 68.6161 42.1169C69.539 41.9821 70.4256 41.664 71.2238 41.1814C72.022 40.6989 72.7156 40.0615 73.2639 39.3069C74.1663 38.0983 74.6538 36.6304 74.6538 35.1221C74.6538 33.6138 74.1663 32.1458 73.2639 30.9372C72.7106 30.1829 72.0117 29.5471 71.2085 29.0677C70.4052 28.5882 69.5139 28.2747 68.5874 28.1458C67.6608 28.0168 66.7179 28.0751 65.8142 28.317C64.9106 28.559 64.0646 28.9797 63.3264 29.5544C62.077 30.5174 61.2061 31.8892 60.8662 33.4297C60.7676 33.8404 60.719 34.2615 60.7215 34.6839C60.7117 34.8321 60.7225 34.9809 60.7536 35.1261Z" fill="#263238"/>
<path d="M44.0707 32.2156C44.135 32.2156 44.0707 31.6126 44.3923 30.6076C44.8017 29.1599 45.6778 27.888 46.8847 26.9896C47.7662 26.3358 48.7968 25.9119 49.8832 25.7561C50.9697 25.6003 52.0778 25.7175 53.1076 26.0972C54.3227 26.5396 55.3781 27.3347 56.1387 28.3805C56.9592 29.5 57.4015 30.8518 57.4015 32.2397C57.4015 33.6277 56.9592 34.9795 56.1387 36.0989C55.381 37.1476 54.3246 37.9433 53.1076 38.3823C52.0778 38.762 50.9697 38.8792 49.8832 38.7234C48.7968 38.5676 47.7662 38.1436 46.8847 37.4898C45.6778 36.5915 44.8017 35.3196 44.3923 33.8718C44.1109 32.8508 44.135 32.2638 44.0707 32.2638C44.052 32.408 44.052 32.5539 44.0707 32.698C44.0682 33.1204 44.1168 33.5415 44.2154 33.9522C44.5548 35.4951 45.4256 36.8696 46.6756 37.8356C47.4149 38.4094 48.2615 38.8294 49.1656 39.0708C50.0698 39.3122 51.0131 39.3702 51.94 39.2413C52.8669 39.1125 53.7586 38.7993 54.5625 38.3204C55.3665 37.8414 56.0664 37.2064 56.6211 36.4527C57.5217 35.2418 58.0081 33.7729 58.0081 32.2638C58.0081 30.7548 57.5217 29.2859 56.6211 28.075C56.0679 27.3206 55.3689 26.6849 54.5657 26.2054C53.7624 25.7259 52.8712 25.4125 51.9446 25.2835C51.0181 25.1546 50.0751 25.2128 49.1714 25.4548C48.2678 25.6967 47.4218 26.1175 46.6837 26.6921C45.4352 27.6595 44.5648 29.0334 44.2234 30.5754C44.1248 30.9862 44.0762 31.4073 44.0787 31.8297C44.0605 31.9575 44.0578 32.0871 44.0707 32.2156Z" fill="#263238"/>
<path d="M57.8191 32.4568C57.8914 32.5935 58.7839 32.1754 59.821 32.497C60.8582 32.8186 61.3808 33.6467 61.5174 33.5663C61.6541 33.4859 61.5174 33.2689 61.3164 32.9151C60.9962 32.4523 60.5282 32.1119 59.9892 31.9498C59.4502 31.7877 58.8722 31.8134 58.3497 32.0227C57.9557 32.1835 57.7789 32.3925 57.8191 32.4568Z" fill="#263238"/>
<path d="M34.6238 30.4146C34.6238 30.5754 36.8669 30.6639 39.6327 30.6317C42.3985 30.5996 44.6336 30.4307 44.6336 30.2699C44.6336 30.1091 42.3904 30.0207 39.6247 30.0609C36.8589 30.1011 34.6238 30.2538 34.6238 30.4146Z" fill="#263238"/>
<path d="M78.3533 11.4161C78.3527 11.6433 78.3147 11.8687 78.2407 12.0835C78.0413 12.6776 77.6758 13.2021 77.1875 13.595C76.4665 14.1871 75.5841 14.5485 74.6549 14.6321C73.5345 14.7223 72.407 14.6629 71.3022 14.4553C69.2944 14.1589 67.3032 13.759 65.3366 13.2573C64.5808 13.0563 63.9697 12.8875 63.5597 12.7588L63.0773 12.6061L62.9165 12.5418C62.9165 12.5418 62.9808 12.5418 63.0854 12.5418L63.5758 12.6623L65.3606 13.1045C66.8722 13.4663 68.9787 13.9086 71.3264 14.2623C72.4178 14.4678 73.5313 14.5299 74.6388 14.4472C75.5419 14.3731 76.4031 14.0347 77.1152 13.4744C77.5942 13.101 77.9613 12.6032 78.1764 12.0352C78.3211 11.6573 78.3292 11.4081 78.3533 11.4161Z" fill="white"/>
<path d="M79.9131 13.0081C79.814 13.6788 79.6105 14.3299 79.3101 14.9377C78.613 16.4304 77.4841 17.6796 76.0694 18.5238C74.6547 19.3681 73.0193 19.7684 71.3746 19.6732C70.6997 19.6507 70.0324 19.5232 69.3967 19.2953C69.5761 19.3164 69.7535 19.3513 69.9274 19.3999C70.4078 19.4893 70.8942 19.5431 71.3826 19.5607C72.9982 19.6196 74.5962 19.209 75.9832 18.3785C77.3701 17.5481 78.4866 16.3333 79.1975 14.8814C79.4221 14.4467 79.6052 13.9917 79.7442 13.5226C79.7889 13.3475 79.8453 13.1756 79.9131 13.0081Z" fill="white"/>
</svg>
